M48
;Layer_Color=9474304
;FILE_FORMAT=2:5
INCH,LZ
;TYPE=PLATED
T1F00S00C0.00787
T2F00S00C0.00984
T3F00S00C0.01181
T4F00S00C0.01575
T5F00S00C0.01968
T6F00S00C0.02756
T7F00S00C0.03543
T8F00S00C0.03642
T9F00S00C0.03740
T10F00S00C0.03937
T11F00S00C0.04000
T13F00S00C0.04213
T14F00S00C0.05000
T15F00S00C0.05118
T16F00S00C0.05906
T17F00S00C0.06181
T18F00S00C0.06299
T19F00S00C0.07874
T20F00S00C0.09055
T21F00S00C0.10630
T22F00S00C0.11024
T23F00S00C0.12598
%
T01
X0414961Y0027953
X0427165Y002815
X0433071
X0438976
X0444882
X044685Y0038583
X0444488Y0043898
X0440551
X044252Y0048622
X0429134Y0048425
X0427165Y0043701
X0433071
X0431102Y003878
X0437008
X0425197Y0038583
X0415354Y0052362
X0683071Y0063189
X069626
X060748Y0095079
X0531496Y0097835
Y0089961
X0501378
Y0097835
X0169095Y0081102
X0153347
T02
X0182874Y0026181
Y0029331
X0770669Y0089567
X0774213
X0415748Y0123228
X0412795
X0403543
X0400591
X0391339
X0388386
X0379134
X0375984
X0380118Y0194095
X037815Y0196653
X0390354Y0207874
X0392717Y0205512
X035748Y009626
X0353937
X0342323
X0338779
X0184213Y0111811
X0180866
X0173425Y0111024
X0170079
X0163386Y0110827
X0160039
X015315Y0111024
X0149803
X0142913Y0111221
X0139764
X0148819Y0145669
X0152362
X0151575Y0073622
X0148425
X0156102
X0159055
X0134843Y0066732
X0131693
X0189764Y007126
X019311
X0029528Y0228003
X0026378
X0057874Y0230118
X0061221
X0069882Y0229921
X0072835
X0066929Y0216535
X0063976
X0202362Y0320866
X0205512
X0241732Y032126
X0244685
X0244882Y0289961
X0241732
X0264961Y0303937
Y0307087
X0287008Y0311221
X0290158
X0292913Y032126
X0296063
Y0299606
X0292913
X0301969Y0305315
X0304331Y030315
X0332283Y0306496
X0330118Y0308858
X0329528Y032126
X0326378
X0316732Y0325984
Y0329331
X0332283Y0289764
X0335433
X0329528Y0273819
X0326378
X0282087Y0279528
X0279921Y0281693
X0232283Y0251378
X0229134
X0230315Y0237795
X0227165
X0402362Y0217323
X0404724Y0215158
X0415158Y0226772
X041752Y0224606
X055Y0289961
X0553346
X0780905Y0234449
Y0230906
T03
X0078347Y0046654
X0092126Y0043504
X011063Y0045079
X0114961
X0118307Y0049409
X0104528Y0051772
X0105709Y0024803
X0111221Y0018307
X0115748
X0119291Y002185
X0205315Y0029724
X0213976Y0017717
Y0014961
X0219685Y0048819
X0305709Y0051968
Y0055315
X0297638Y0027362
X0291339Y0016142
Y0013386
X038563Y0049606
X0395276Y0048819
X0405118Y0049606
X0463976Y0044291
X0464173Y003563
X0467126Y0019488
X0463976Y0055709
X0563779Y0033465
X0565748Y0009449
X0659646Y0013583
Y0019685
X066437Y0010433
X0667717Y0005512
X0679921Y0053347
X0653543Y0055905
X0650787
X0703346Y0053347
X0721063Y0045276
X0724606Y0032874
X0712598Y0030709
X0733661Y0038583
X0737008Y0045669
X0785039Y0055315
X0787598
X0809842Y0049606
X0716535Y0002756
X0693701Y0002756
Y0010236
X0685039
X0682283Y0078543
X0688583
X0694882
X0701181
X070748
X0713779
X0717717Y0087205
X0715945Y0110039
X0697441Y0109843
X0683588Y0127239
X0715748Y0137402
Y0167323
X0726181Y017185
X07265Y017815
X0730709Y0190748
X0707087Y0195079
X0701181
X0695276
X068937
X0683465
X0683465Y0181693
X068937Y0180905
Y0170669
X0701181Y0175197
X0704134Y0202953
X0692323Y0207874
X0686417Y0205636
X0751968Y0204724
Y0207087
X0754331
Y0204724
X0749016Y0200984
Y0180118
X0755905Y0169882
X0762008Y0161811
X0779921Y0162598
X0783465Y0155315
X0785236Y0141142
X0760039Y0135827
X0747441Y0109843
X0755512Y0094095
X0746654Y0084252
X0739567Y0072835
X0743701Y0064764
X0772638Y0066339
Y0062795
X0792126Y0067323
X0795965Y0076378
Y0080315
X0801083
Y0076378
X0801968Y0059055
X081063Y0063189
X0784252Y007815
X0789468Y0087008
X0781693Y0099016
X0777953Y0107677
X0793701Y0166339
X0795079Y0180118
X079252Y0196457
X0801181Y019311
X0780709Y0186811
X0733661Y0163386
X0737728Y0155315
X0665748Y0151181
X0668701Y0180315
X0674803Y0177756
X0677559Y0181693
X0671654Y0186221
X0665748
X0665748Y0195079
X0671654
X0677559
X0680512Y0200394
X0630315Y0200197
X0623622Y0186221
Y0173819
X0630315Y0167323
X0633858Y0163386
X0640748Y0159646
X0630905Y0155118
X0626181Y0155315
X0620472
X0617323
X0614173
X0611024
X0605315Y0150197
X0599409Y0155315
X059626
X059311
X0586221Y0155118
X0582087Y0149803
X0587008Y0140157
X0584055Y0133268
X0578543Y013189
X0575197
X057185Y0131897
X0568504Y013189
X0565158
X0561614
X0555118Y0127953
X0555512Y014252
X0541732Y0130512
X0531496
X0539961Y0119882
X0537402Y0106693
X0534055
X0527559
X0591535Y0108858
X0600394Y0104921
X0599606Y0120276
X0599705Y0124902
X0604331Y0124902
X0608957Y0124902
X0609055Y0129528
X0604331
X0599705Y0129626
X0594882Y0137205
X0605315Y0138386
X0604331Y0120276
X0608957Y0120177
X0619291Y0119095
X061752Y0116339
X0625787Y0121063
X0632087Y0116339
X0638386Y010689
X0649213Y0108071
X0648032Y0115945
X0651968Y0120473
X0662795Y0114173
X0671867Y0120276
X0677756Y0123819
X0675984Y0078543
X0669685
X0665945Y0087205
X0647441Y0088189
X0632874
X063189Y0082677
X0632283Y0100394
X0638189Y0133268
X0636811Y0146653
X0625394Y0137795
X0637402Y017874
X0607874Y0186221
X0605118Y0170669
X0544685Y017874
X0557087Y006752
X0560236
X0582677Y0082677
X060748
X0681102Y0057677
X0523622Y009311
X0510827
X0508661Y010374
X0505512
X0497244
X0493898
X0489173Y0116142
X0481693
X0473622Y0116339
X0466142Y0116142
X0462205Y0115551
X0460138Y0106004
X0466535Y0100394
X0454134Y0097047
X0445669Y0100197
X0448425Y0115945
X044936Y0077707
X045Y0073622
X0448032Y0069291
X0437795Y0070866
X0432087Y0076575
X0426378Y0082283
X0437795Y0082283
X0426378Y0070866
X0416535Y0069488
X0409646Y0067913
X0397047Y0062008
X0386614Y0064961
Y0058268
X0390354Y0084842
X0398425Y008189
X0415354Y0089567
X0420472Y0057874
X0461417Y0062992
X0461024Y0069291
X0462992Y0075197
Y0081102
X0476772Y0080905
X0485433Y0125
X0489173Y0135039
X048937Y0141339
X0500984Y0134449
X0512795Y0136122
X0516535Y0135433
Y0116535
X0500984Y0116339
X0524213Y0106693
X0501575Y0160039
Y0176772
X0469882Y0140354
X0473622Y0135039
X0371654Y0090551
X0368504Y0114173
Y0126575
X0361024Y0145472
X0298228Y0142323
X0286417Y0145472
X0292913Y0112795
X0295276
X0297638
X0300394Y0100984
X0296555Y0091732
Y0087795
X0291437
Y0091732
X0285433Y0098425
X0287106Y0081102
X0284842Y0077559
X0282087
X0271457Y0070472
Y0066929
X0256102Y0070472
Y0059646
X0241339Y0066339
X0221654Y0061417
X021624Y0084055
X0215551Y010374
X0212992Y0112795
X0217126Y0126575
X0224803Y0119291
X022858Y0101378
X0240158Y0090354
X0247638Y0086811
X0242323Y0112598
X0245472Y0138386
X0235204Y0145472
X0238583Y0149606
X0242323Y0153543
X0245866Y015748
X024941Y0161417
X0230906Y0159843
X0235039Y015374
X0226969Y0150984
X025374Y018248
X0258661Y0188189
X0280906Y0199213
X0300886Y0081102
X030374Y0061614
X032559Y0066142
X0340748
Y0070079
X0355906Y0070079
Y0066339
X021191Y0090748
Y0094685
X0206791
Y0090748
X0202461Y0084055
X0190945Y0083858
Y0080315
X0202559Y0101378
X0208268Y0112795
X021063
X0209842Y0201378
X0102953Y0181102
X0097835Y0181299
X0095669
X0113583Y0150197
X0114764Y0102953
X0117126
X0119488
X0122047Y0095276
X0118307Y0085827
Y008189
X0113189
Y0085827
X0108465Y009252
X0108858Y0075197
X0122638
X0135433Y0079134
Y0082677
X0076968Y0058858
X0058268Y0165945
X0041732Y0187205
X002815Y0180905
X0025984
X0020669Y0181299
X0032283Y0216339
X0022638Y0226772
X0033071Y0236221
X0039961Y0238583
X003622Y0247244
X0036417Y0250984
X0025394
Y0247244
X0022835Y0263386
X0030906Y0272441
X0029134Y0283661
Y0287205
X003622Y0287402
X003937
Y0283858
X003622
X0046654Y0284055
X005
Y0287598
X0046654
X005374Y0283661
X0053543Y0268898
X004626Y0259646
X0053543Y0250197
X0055709Y0216732
X0050591Y0309646
Y0312402
X005059Y0315256
X0047835
X0043307
Y0312894
X0040945
X0041142Y0309055
X0046457
X0044882Y0318602
Y0320374
X004311
Y0318602
X0034843Y0304134
X0031693
X0026575Y0304331
X0034843Y033563
Y0338976
Y034252
X0056496Y0307972
X0059252
X0062008
X0064764
X006752
X0072835Y0308661
X0083465Y031752
X0087205
X0068898Y0283661
X0065354
X0057284
X0072441Y0261614
X0077559Y0262402
X0092126Y0267126
X0101181Y0271457
X0117717Y0275197
X0125394Y0258465
X0152559Y0285236
X015689Y0288779
X0158858Y0293504
Y029626
Y0314764
Y031752
X0182087Y0311614
X0189173Y0310827
X0198892Y0312008
X0202362Y0304331
X0200984Y0298622
X020748Y0298425
X0209842
X0212205
Y0290945
X0209842
X020748
X0195079Y0282677
X0181299Y0298819
X019311Y032185
X0205906Y0338189
Y0340551
Y0342913
X0208268
X021063
Y0340551
Y0338189
X0208268
Y0340551
X0202559Y0358465
X0199606Y0358465
X0196653
X0193701
X0190748
X0187795
X0184843Y0358465
X0181693
X017815
X0174803
X0175197Y0366732
X017185
X0168307
X016063Y0367913
Y0364764
X0156496Y0361221
X0153347
X014685
X0143504
X0137008Y0360827
X0134055
X0137205Y0348622
X0130709
X0143701Y0347933
X0182874Y0367913
X020748Y0243701
Y0241339
X0209842
X0212205
Y0243701
X0209842
X0097835Y0226181
X0091929
X0086024
X0088976Y0229724
X0082284Y0235236
X0080118Y0217126
X0076181Y0213976
X0073228Y0216339
X0068307Y0225984
X0062992Y0226575
X0063779Y0248228
X0223819Y0285236
X0220276Y0299213
X0223819Y0308661
X0223031Y0320866
X0233465Y0323425
X0240354Y0312402
X0248228
X0260039Y0319882
X0265945
X0277362Y0320276
X0270079Y0330118
X0274232Y0340945
X0279724Y0340748
X0265551Y0345472
X0258071Y034626
X0242913Y0346457
X0250394Y0355512
X0284646Y0356496
X0299606Y0356299
X0304724Y0345866
X0309646
X030315Y0331496
X029626Y0311811
X0317126Y0312402
X0316339Y0299016
X0336811Y0298622
Y0319882
X0356299Y0320276
X0357874Y0325
X0361024
X0363779Y032126
X0366929
X0365354Y0306693
Y030374
X0357874Y0290551
X0338976Y0260236
X0335433
X033189
X0307087Y0236614
X030315Y0232261
X0286417Y0215748
X0272244Y0263779
X0260039Y0290945
X0277756Y0298819
X0297441Y0290945
X0240354Y0298622
X0215354Y0338189
Y0340551
Y0342913
X0212992
Y0340551
Y0338189
X0339173Y0341535
X0344094Y0351969
X033248Y0352953
X0362795Y0355709
X0362795Y0348228
X0363386Y0341732
X0361024Y0231791
X0425394Y0230315
Y0217913
X0446121Y0268446
X0461417Y0263976
X0455118Y0304724
X0452751Y0304704
X0473819Y031063
X0475197Y0320866
X0468307Y0324803
X0462008Y0328346
X0472244Y0332283
X0482283
Y0345472
X0487185Y0345374
X0477185
X0472244Y0345276
X0467185Y0345374
X0462205Y0345276
X0457185Y0345374
X0452165Y0345276
X0502165
X0507185Y0345374
X0512205Y0345276
X0517185Y0345374
X0522244Y0345276
Y0307677
X0512205Y0311024
X0502165Y0313976
X0486417Y0316929
X0378937Y031752
Y0315158
X0374803Y032126
X0371654
X0382087Y0322835
X0381299Y0351969
X0370079Y0344291
X0378937Y0293504
X0376575Y0291142
X0388779Y0284449
X039252Y0281102
X0395866Y0272441
X0537402Y0296063
X0532283Y0304134
X0551378Y0296063
X0544685Y0328346
X0547835Y0344488
X0537185Y0345374
X0532283Y0345276
X0527185Y0345374
X0556693Y0340551
X0573425Y0349016
X0589567Y034252
X0595079Y0342126
X0611221Y0349213
X0624213Y0342323
X0637795Y0347638
X0646654Y0343898
X0661417Y0341732
X0661614Y0349016
X0665748Y0334449
X0671654Y0337402
X0677559Y0331496
X0662992Y0324213
X0659842Y0320866
X0642126Y0313976
X0639173Y0311024
X0636221Y0324803
X0636221Y0296457
X0630315
X0642126
X0648032
X0665748
X0659842Y0282874
X0654134
X0642126
X0636221Y0287598
X0624409Y0283071
X0626772Y0273571
X0611024Y0270866
X0614173Y0264961
X0607677Y0259055
X06Y025315
X0601772Y0247244
X060689Y0235433
X0607874Y0231299
X0601772Y0229528
X059311Y0223425
X0578543Y0235433
X0561614Y0241339
X0561024Y0247047
X0565158Y0247244
X057185Y025315
X0580512Y026063
X0587795Y0264961
Y0270866
X0601772Y0276772
Y0288583
X0648032Y0275197
X0640158Y0255118
X0645079Y0234252
X0665748Y0264567
X0560827Y0260433
X0701181Y0260827
X0712992Y0255118
X0726772
X0720276Y0248425
X0726772Y0241339
Y0227559
X0712992
Y0213779
X0726181Y0213976
X0756004Y0214075
X0752362Y0222638
X0765158Y0223622
X0779134
X0783465Y0215551
X079252Y0219291
X0795079Y0223819
X0797835Y0226772
X0790748Y0243701
X0785039Y0241535
X0780512Y0252953
X0787402Y0263386
X0791929Y0263189
X0781496Y027185
Y0276378
X0759646Y0275394
Y0271063
X0752953Y0264567
X0752833Y0260827
X0752559Y0278346
X0756693Y0281299
X0730709Y0287598
X0724803
X0718898
X0701181
X0707087Y0307677
X0706201Y0314272
X0698819Y031752
X070374Y0329528
X070872Y0339232
X0718701Y0327953
X072874Y0318504
X0744949Y031424
X0749213Y0310531
X0761024Y031437
X0766535
X0779528
Y0304134
X0791929Y0296457
Y031811
X0789961Y034685
X0795472Y0346063
X0772047Y0341339
X0766929Y0344488
X0768504Y0331693
X077185
X0765158
X0759055Y0333268
X0748228
X0741929Y0335039
X0737598Y0334842
X0737795Y0330315
X0744685Y0328346
X0683465
X0682283Y0338976
Y0344488
X0755512Y024311
X0759842Y0235433
X0766929Y0241339
X0802953Y0273819
X0805906Y0382283
X0794095Y0392126
X0798228Y0410433
X0805118Y0409842
X0772424Y0409252
X0772047Y0395472
X0759154Y038563
X0756595Y0382776
X0746457Y0385433
X0743504Y0381102
X0739567Y0387205
X0733858Y0379331
X0731693Y0399016
X0743307Y0400591
X0736811Y0409646
X0732874Y0413583
X0716732Y0415748
X0716535Y0410236
X0720276Y0430709
X0725
Y0448819
X071752Y045374
Y0459252
X0706102Y0440748
X0699606Y0400197
X0688976Y04
X0744685Y0426378
X0761614Y0430905
X0780118Y0434449
X0780905Y0462598
X0787402Y0464567
X0787008Y048248
X078248Y0480315
X0771654Y0476772
X0759842Y0483268
X0760039Y0464961
X0771063Y0458858
X076752Y0375787
X0656693Y0381299
X0651575Y0386221
X0646654Y0385827
X0637795Y0382087
X0629921Y037815
X0634252Y0373819
X061437Y037559
X0620669Y0395669
X0613189Y0404921
X0612992Y0410236
X061304Y041502
X0612598Y0420079
X0609646Y0424803
X0609596Y0430561
X0604921Y043937
Y0447244
Y0459055
X0605315Y0466929
X0609842Y0472047
X0610039Y0476378
X0626378Y0470866
X0636417Y0467913
X0637795Y0473819
X0636221Y0481102
X0660236Y0464764
X0669882Y0461221
X0673819Y0440354
X0668504Y0436024
X0658268Y0433465
X0651772Y0448819
X0637008Y0435039
X0637598Y0427362
X063753Y042002
X0626378Y0424606
X0621063Y0441142
X0551575Y0439764
X0543504Y0446457
X0530905Y0441929
X0546608Y0429528
X055824Y0385728
X055315Y0378937
X0537136Y038184
X0532037Y038184
X0527136Y038184
X0573425Y0380315
X0590748Y0379528
X0596457Y0386811
X0584055Y0396654
X0575787Y0399606
X0672244Y0399016
X0674409Y042126
X0515354Y0421457
X0510433Y0429921
X0506693Y0439173
X0474803Y0433858
X0464173Y0433858
X0454528Y0433268
X044311Y0433661
X0439961Y043189
X0437598
X0435236
X0430315
X0427953
X0425591
X0420472Y043189
X041811
X0415748
X0411024
X0408661
X0406299
X0406299Y0412992
X0408661
X0411024
X0415748
X041811
X0420472
X0425591Y0412992
X0427953
X0430315
X0435236
X0437598
X0439961
X0444882Y0412894
X0447244
X0449606
X0454528Y0412795
X045689
X0459252
X0464173
X0466535
X0468898
X0474016
X0476378
X047874
X0489764Y0400591
X0493504Y0399606
X0504724Y0400591
X0508465Y039941
X0503543Y0391929
X0507136Y038184
X0517136
X0522165Y0381811
X0523622Y039941
X0519882Y0400591
X0487136Y038184
X0477136
X0467136
X0457087Y038189
X0429528Y039252
X0425787Y0401378
X0411024
X0414764Y039252
X04
X0392323Y0390748
X0385236Y039252
X0377756Y0390748
X0370472Y039252
X0381496Y0401378
X039626
X0366732
X0351969
X0355709Y039252
X0341142
X0337402Y0401378
X0322638
X0326378Y039252
X0309646Y0394882
X0304528Y0395079
X0292126Y0405905
X0280118Y0400984
X0274606
X0273031Y0421063
X0270669
X0268307
X0268307Y0439961
X0270669
X0273031
X0308858Y0431496
X0224803Y0435236
X0221457
X021811
X0214567
X0216339Y041437
Y0410433
Y0406496
X0224213
X022815
X0224213Y0410433
Y041437
X0212402
Y0410433
Y0406496
X0204528
Y0410433
X0200591
Y041437
X0204528
X0189764Y0422441
X0176969Y0423032
X0173622Y0432087
X0175591Y0434252
X0178347
X0180905Y0433661
X0183071Y0437008
Y0440158
X0190748Y0438976
X0194291
X0197638
Y0443307
X0194291Y0443307
X0190748
Y0447638
X0194291
X0197638
X0205512Y0440158
Y0437008
X0211221Y0435236
X0186417Y0433661
X0169095Y0432087
X0165748
X0159646
X0156693
X0160039Y0419488
X0136221Y041752
X0124409
X0130512Y0427756
X0138386Y0458661
X0140945
X0143504
X0146063
X0148622
X0151181
X0171063Y0460433
X0173819
X0176575
X0187402
X0185827Y0398228
Y0395669
Y039311
X0175197Y0375394
X017185
X0168307
Y0371063
X017185
X0175197Y0371063
X0116339Y0389173
X0113583
X0110827
T04
X0388927Y0015502
X0413386Y0041535
X0814173Y0070371
Y0072835
T05
X0105709Y0038729
X0161024Y0036614
X0117028Y0068799
T06
X0154527Y0044488
X0152559Y0050394
X0160433
X0168307
X0176181
X0184055
X0182087Y0044488
X0172244
X016437
Y0057087
X0172244
X0182087
X0184055Y0062992
X0176181
X0168307
X0160433
X0152559
X0154527Y0057087
T07
X058998Y0058071
X059998
X060998
X061998
X061498Y0068071
X060498
X059498
X062498
T08
X0240024Y0041339
X0249867
X025774
X0267583
Y0051575
X025774
X0249867
X0240024
X0326102Y0051811
X0335945
X0343819
X0353661
Y0041575
X0343819
X0335945
X0326102
T09
X0582579Y001378
X0592579Y0019764
X0622382Y001378
X0632382Y0019764
X0536614Y0070472
X0528622
X0532638Y0080472
X054063
X0524646
X052063Y0070472
X0512598
X0504606
X0496614
X0500591Y0080472
X0508583
X0492598
T10
X0528386Y045126
Y046126
Y047126
X0538386
X0548386
X0558386
X0568386
Y046126
X0558386
X0548386
X0538386
Y045126
X0548386
X0558386
X0568386
X0518386
Y046126
Y047126
X0508386
X0498386
X0488386
X0478386
X0468386
X0458386
X0448386
X0438386
X0428386
X0418386
X0408386
X0398386
X0388386
X0378386
Y046126
X0388386
X0398386
X0408386
X0418386
X0428386
X0438386
X0448386
X0458386
X0468386
X0478386
X0488386
X0498386
X0508386
Y045126
X0498386
X0488386
X0478386
X0468386
X0458386
X0448386
X0438386
X0428386
X0418386
X0408386
X0398386
X0388386
X0378386
X0368386
Y046126
Y047126
X0358386
X0348386
X0338386
X0328386
X0318386
X0308386
X0298386
X0288386
X0278386
X0268386
X0258386
Y046126
X0268386
X0278386
X0288386
X0298386
X0308386
X0318386
X0328386
X0338386
X0348386
X0358386
Y045126
X0348386
X0338386
X0328386
X0318386
X0308386
X0298386
X0288386
X0278386
X0268386
X0258386
T11
X0111024Y0007874
X0121024
X0801575Y0111221
Y0121221
Y013122
Y014122
Y0151221
Y0161221
X0458465Y0285197
Y0295197
X0438779Y0343898
X042878
X041878
X0408779
X039878
X0388779
X0561181Y0291339
X0571181
X0571102Y0279528
X0561102
X0801772Y0282283
Y0292284
Y0302284
Y0312283
Y0322284
Y0332283
T13
X0089764Y0278819
Y0288819
Y0298819
Y0308819
T14
X0487008Y0009488
Y0019488
Y0029488
X054622Y0019488
Y0009488
T15
X0397244Y0010039
X0399606Y0029331
X0456693
X0459055Y0010039
T16
X0046024Y036185
X0061024
X0076024
X0091024Y047185
X0061024
X0031024
T17
X0482008Y0044488
X0551221
T18
X057687Y0045079
X0638091
T19
X0031024Y036185
X0091024
T20
X0142441Y0036614
X0194173
X0227937Y0030669
X0228056Y0053031
X0279788
X027967Y0030669
X0314016Y0030906
X0314134Y0053268
X0365866
X0365748Y0030906
X0746575Y0033268
X0798307
X0194173Y0059016
X0142441
T21
X0431693Y0128347
X013248
X0061417Y0075787
X013248Y0313386
X0431693
T22
X0588386Y048126
X0238386
T23
X0497598Y0044488
X053563
M30
