G04*
G04 #@! TF.GenerationSoftware,Altium Limited,Altium Designer,21.2.2 (38)*
G04*
G04 Layer_Color=16711935*
%FSLAX25Y25*%
%MOIN*%
G70*
G04*
G04 #@! TF.SameCoordinates,9A9FBC94-F95F-4755-83A8-F293FEA714C6*
G04*
G04*
G04 #@! TF.FilePolarity,Negative*
G04*
G01*
G75*
%ADD159C,0.12611*%
%ADD160C,0.06800*%
%ADD161R,0.06800X0.06800*%
%ADD162R,0.06800X0.06800*%
%ADD163C,0.06902*%
%ADD164C,0.08280*%
%ADD165C,0.10642*%
%ADD166C,0.16548*%
%ADD167C,0.07493*%
%ADD168C,0.00800*%
%ADD169C,0.06706*%
%ADD170C,0.20485*%
%ADD171C,0.05131*%
%ADD172C,0.05524*%
%ADD173C,0.07099*%
%ADD174C,0.06312*%
%ADD175C,0.11036*%
%ADD176C,0.08556*%
%ADD177C,0.11627*%
%ADD178C,0.14580*%
%ADD179C,0.06115*%
%ADD180C,0.09461*%
%ADD181O,0.17335X0.09461*%
%ADD182O,0.19304X0.09461*%
%ADD183O,0.09461X0.17335*%
%ADD184C,0.03162*%
D159*
X746575Y33268D02*
D03*
X798307D02*
D03*
X238386Y481260D02*
D03*
X588386D02*
D03*
X142441Y59016D02*
D03*
X194173D02*
D03*
X142441Y36614D02*
D03*
X194173D02*
D03*
D160*
X458465Y285197D02*
D03*
X418780Y343898D02*
D03*
X428780D02*
D03*
X408779D02*
D03*
X398780D02*
D03*
X388779D02*
D03*
X571102Y279528D02*
D03*
X561181Y291339D02*
D03*
X801772Y282283D02*
D03*
Y292284D02*
D03*
Y302284D02*
D03*
Y322284D02*
D03*
Y312283D02*
D03*
X801575Y111221D02*
D03*
Y121221D02*
D03*
Y131220D02*
D03*
Y151221D02*
D03*
Y141220D02*
D03*
X121024Y7874D02*
D03*
D161*
X458465Y295197D02*
D03*
X801772Y332283D02*
D03*
X801575Y161221D02*
D03*
D162*
X438779Y343898D02*
D03*
X561102Y279528D02*
D03*
X571181Y291339D02*
D03*
X111024Y7874D02*
D03*
D163*
X536614Y70472D02*
D03*
X528622D02*
D03*
X520630D02*
D03*
X512598D02*
D03*
X504606D02*
D03*
X496614D02*
D03*
X540630Y80472D02*
D03*
X532638D02*
D03*
X524646D02*
D03*
X508583D02*
D03*
X500591D02*
D03*
X492598D02*
D03*
D164*
X546220Y19488D02*
D03*
Y9488D02*
D03*
X487008Y29488D02*
D03*
Y19488D02*
D03*
Y9488D02*
D03*
D165*
X551221Y44488D02*
D03*
X482008D02*
D03*
X46024Y361850D02*
D03*
X61024D02*
D03*
X76024D02*
D03*
D166*
X535630Y44488D02*
D03*
X497598D02*
D03*
D167*
X258386Y471260D02*
D03*
X268386D02*
D03*
X278386D02*
D03*
X288386D02*
D03*
X298386D02*
D03*
X308386D02*
D03*
X318386D02*
D03*
X328386D02*
D03*
X338386D02*
D03*
X348386D02*
D03*
X358386D02*
D03*
X368386D02*
D03*
X378386D02*
D03*
X388386D02*
D03*
X398386D02*
D03*
X408386D02*
D03*
X418386D02*
D03*
X428386D02*
D03*
X438386D02*
D03*
X448386D02*
D03*
X458386D02*
D03*
X468386D02*
D03*
X478386D02*
D03*
X488386D02*
D03*
X498386D02*
D03*
X508386D02*
D03*
X518386D02*
D03*
X528386D02*
D03*
X538386D02*
D03*
X548386D02*
D03*
X558386D02*
D03*
X568386D02*
D03*
X258386Y461260D02*
D03*
X268386D02*
D03*
X278386D02*
D03*
X288386D02*
D03*
X298386D02*
D03*
X308386D02*
D03*
X318386D02*
D03*
X328386D02*
D03*
X338386D02*
D03*
X348386D02*
D03*
X358386D02*
D03*
X368386D02*
D03*
X378386D02*
D03*
X388386D02*
D03*
X398386D02*
D03*
X408386D02*
D03*
X418386D02*
D03*
X428386D02*
D03*
X438386D02*
D03*
X448386D02*
D03*
X458386D02*
D03*
X468386D02*
D03*
X478386D02*
D03*
X488386D02*
D03*
X498386D02*
D03*
X508386D02*
D03*
X518386D02*
D03*
X528386D02*
D03*
X538386D02*
D03*
X548386D02*
D03*
X558386D02*
D03*
X568386D02*
D03*
X258386Y451260D02*
D03*
X268386D02*
D03*
X278386D02*
D03*
X288386D02*
D03*
X298386D02*
D03*
X308386D02*
D03*
X318386D02*
D03*
X328386D02*
D03*
X338386D02*
D03*
X348386D02*
D03*
X358386D02*
D03*
X368386D02*
D03*
X378386D02*
D03*
X388386D02*
D03*
X398386D02*
D03*
X408386D02*
D03*
X418386D02*
D03*
X428386D02*
D03*
X438386D02*
D03*
X448386D02*
D03*
X458386D02*
D03*
X468386D02*
D03*
X478386D02*
D03*
X488386D02*
D03*
X498386D02*
D03*
X508386D02*
D03*
X518386D02*
D03*
X528386D02*
D03*
X538386D02*
D03*
X548386D02*
D03*
X558386D02*
D03*
X568386D02*
D03*
X456693Y29331D02*
D03*
X399606D02*
D03*
X397244Y10039D02*
D03*
X459055D02*
D03*
D168*
X382480Y305512D02*
D03*
X100787Y200787D02*
D03*
X22047D02*
D03*
X98268Y288819D02*
D03*
D169*
X155315Y305512D02*
D03*
D170*
X431693Y313386D02*
D03*
X132480D02*
D03*
X132480Y128347D02*
D03*
X431693D02*
D03*
X61417Y75787D02*
D03*
D171*
X184055Y62992D02*
D03*
X176181D02*
D03*
X168307D02*
D03*
X160433D02*
D03*
X152559D02*
D03*
X172244Y57087D02*
D03*
X164370D02*
D03*
X184055Y50394D02*
D03*
X176181D02*
D03*
X168307D02*
D03*
X160433D02*
D03*
X152559D02*
D03*
X172244Y44488D02*
D03*
X164370D02*
D03*
D172*
X182087Y57087D02*
D03*
X154527D02*
D03*
X182087Y44488D02*
D03*
X154527D02*
D03*
D173*
X353661Y51811D02*
D03*
X326102D02*
D03*
X353661Y41575D02*
D03*
X326102D02*
D03*
X267583Y51575D02*
D03*
X240024D02*
D03*
X267583Y41339D02*
D03*
X240024D02*
D03*
D174*
X343819Y51811D02*
D03*
X335945D02*
D03*
X343819Y41575D02*
D03*
X335945D02*
D03*
X257740Y51575D02*
D03*
X249867D02*
D03*
X257740Y41339D02*
D03*
X249867D02*
D03*
D175*
X365866Y53268D02*
D03*
X365748Y30906D02*
D03*
X314134Y53268D02*
D03*
X314016Y30906D02*
D03*
X279788Y53031D02*
D03*
X279670Y30669D02*
D03*
X228056Y53031D02*
D03*
X227937Y30669D02*
D03*
D176*
X89764Y278819D02*
D03*
Y288819D02*
D03*
Y298819D02*
D03*
Y308819D02*
D03*
D177*
X91024Y471850D02*
D03*
X61024D02*
D03*
X31024D02*
D03*
D178*
Y361850D02*
D03*
X91024D02*
D03*
D179*
X582579Y13780D02*
D03*
X592579Y19764D02*
D03*
X622382Y13780D02*
D03*
X632382Y19764D02*
D03*
X589980Y58071D02*
D03*
X594980Y68071D02*
D03*
X599980Y58071D02*
D03*
X604980Y68071D02*
D03*
X609980Y58071D02*
D03*
X614980Y68071D02*
D03*
X619980Y58071D02*
D03*
X624980Y68071D02*
D03*
X629980Y33071D02*
D03*
X584980D02*
D03*
D180*
X638091Y45079D02*
D03*
X576870D02*
D03*
D181*
X41929Y28937D02*
D03*
D182*
Y53543D02*
D03*
D183*
X60827Y41732D02*
D03*
D184*
X716535Y410236D02*
D03*
X530905Y441929D02*
D03*
X515354Y421457D02*
D03*
X604921Y439370D02*
D03*
X780905Y462598D02*
D03*
X732874Y413583D02*
D03*
X736811Y409646D02*
D03*
X726181Y213976D02*
D03*
X613040Y415020D02*
D03*
X636417Y467913D02*
D03*
X626378Y470866D02*
D03*
X609842Y472047D02*
D03*
X637530Y420020D02*
D03*
X605315Y466929D02*
D03*
X612598Y420079D02*
D03*
X604921Y459055D02*
D03*
Y447244D02*
D03*
X795472Y346063D02*
D03*
X551378Y296063D02*
D03*
X537402D02*
D03*
X561024Y247047D02*
D03*
X560827Y260433D02*
D03*
X555118Y127953D02*
D03*
X555512Y142520D02*
D03*
X717520Y459252D02*
D03*
X669882Y461221D02*
D03*
X575787Y399606D02*
D03*
X716732Y415748D02*
D03*
X805118Y409842D02*
D03*
X688976Y400000D02*
D03*
X699606Y400197D02*
D03*
X772047Y395472D02*
D03*
X805906Y382283D02*
D03*
X794095Y392126D02*
D03*
X787402Y464567D02*
D03*
X787008Y482480D02*
D03*
X771654Y476772D02*
D03*
X771063Y458858D02*
D03*
X782480Y480315D02*
D03*
X621063Y441142D02*
D03*
X620669Y395669D02*
D03*
X720276Y430709D02*
D03*
X725000D02*
D03*
Y448819D02*
D03*
X798228Y410433D02*
D03*
X717520Y453740D02*
D03*
X759842Y483268D02*
D03*
X636221Y481102D02*
D03*
X626378Y424606D02*
D03*
X637008Y435039D02*
D03*
X760039Y464961D02*
D03*
X767520Y375787D02*
D03*
X731693Y399016D02*
D03*
X744685Y426378D02*
D03*
X761614Y430905D02*
D03*
X780118Y434449D02*
D03*
X637598Y427362D02*
D03*
X660236Y464764D02*
D03*
X609596Y430561D02*
D03*
X613189Y404921D02*
D03*
X454528Y433268D02*
D03*
X464173Y433858D02*
D03*
X474803Y433858D02*
D03*
X443110Y433661D02*
D03*
X596457Y386811D02*
D03*
X772424Y409252D02*
D03*
X637795Y473819D02*
D03*
X392323Y390748D02*
D03*
X377756D02*
D03*
X171850Y366732D02*
D03*
X175197D02*
D03*
X168307D02*
D03*
X171850Y371063D02*
D03*
X175197Y371063D02*
D03*
X168307Y371063D02*
D03*
Y375394D02*
D03*
X175197D02*
D03*
X171850D02*
D03*
X801083Y76378D02*
D03*
X291437Y91732D02*
D03*
X206791Y94685D02*
D03*
X113189Y85827D02*
D03*
X194291Y447638D02*
D03*
X197638D02*
D03*
X190748D02*
D03*
Y443307D02*
D03*
X197638Y443307D02*
D03*
X194291Y443307D02*
D03*
X190748Y438976D02*
D03*
X197638D02*
D03*
X194291D02*
D03*
M02*
