G04*
G04 #@! TF.GenerationSoftware,Altium Limited,Altium Designer,21.2.2 (38)*
G04*
G04 Layer_Color=255*
%FSLAX25Y25*%
%MOIN*%
G70*
G04*
G04 #@! TF.SameCoordinates,9A9FBC94-F95F-4755-83A8-F293FEA714C6*
G04*
G04*
G04 #@! TF.FilePolarity,Positive*
G04*
G01*
G75*
%ADD194C,0.11811*%
%ADD195C,0.06000*%
%ADD196R,0.06000X0.06000*%
%ADD197R,0.06000X0.06000*%
%ADD198C,0.06102*%
%ADD199C,0.07480*%
%ADD200C,0.09843*%
%ADD201C,0.15748*%
%ADD202C,0.06693*%
%ADD203C,0.05906*%
%ADD204C,0.19685*%
%ADD205C,0.04331*%
%ADD206C,0.04724*%
%ADD207C,0.06299*%
%ADD208C,0.05512*%
%ADD209C,0.10236*%
%ADD210C,0.07756*%
%ADD211C,0.10827*%
%ADD212C,0.13780*%
%ADD213C,0.05315*%
%ADD214C,0.08661*%
%ADD215O,0.16535X0.08661*%
%ADD216O,0.18504X0.08661*%
%ADD217O,0.08661X0.16535*%
D194*
X746575Y33268D02*
D03*
X798307D02*
D03*
X238386Y481260D02*
D03*
X588386D02*
D03*
X142441Y59016D02*
D03*
X194173D02*
D03*
X142441Y36614D02*
D03*
X194173D02*
D03*
D195*
X458465Y285197D02*
D03*
X418780Y343898D02*
D03*
X428780D02*
D03*
X408779D02*
D03*
X398780D02*
D03*
X388779D02*
D03*
X571102Y279528D02*
D03*
X561181Y291339D02*
D03*
X801772Y282283D02*
D03*
Y292284D02*
D03*
Y302284D02*
D03*
Y322284D02*
D03*
Y312283D02*
D03*
X801575Y111221D02*
D03*
Y121221D02*
D03*
Y131220D02*
D03*
Y151221D02*
D03*
Y141220D02*
D03*
X121024Y7874D02*
D03*
D196*
X458465Y295197D02*
D03*
X801772Y332283D02*
D03*
X801575Y161221D02*
D03*
D197*
X438779Y343898D02*
D03*
X561102Y279528D02*
D03*
X571181Y291339D02*
D03*
X111024Y7874D02*
D03*
D198*
X536614Y70472D02*
D03*
X528622D02*
D03*
X520630D02*
D03*
X512598D02*
D03*
X504606D02*
D03*
X496614D02*
D03*
X540630Y80472D02*
D03*
X532638D02*
D03*
X524646D02*
D03*
X508583D02*
D03*
X500591D02*
D03*
X492598D02*
D03*
D199*
X546220Y19488D02*
D03*
Y9488D02*
D03*
X487008Y29488D02*
D03*
Y19488D02*
D03*
Y9488D02*
D03*
D200*
X551221Y44488D02*
D03*
X482008D02*
D03*
X46024Y361850D02*
D03*
X61024D02*
D03*
X76024D02*
D03*
D201*
X535630Y44488D02*
D03*
X497598D02*
D03*
D202*
X258386Y471260D02*
D03*
X268386D02*
D03*
X278386D02*
D03*
X288386D02*
D03*
X298386D02*
D03*
X308386D02*
D03*
X318386D02*
D03*
X328386D02*
D03*
X338386D02*
D03*
X348386D02*
D03*
X358386D02*
D03*
X368386D02*
D03*
X378386D02*
D03*
X388386D02*
D03*
X398386D02*
D03*
X408386D02*
D03*
X418386D02*
D03*
X428386D02*
D03*
X438386D02*
D03*
X448386D02*
D03*
X458386D02*
D03*
X468386D02*
D03*
X478386D02*
D03*
X488386D02*
D03*
X498386D02*
D03*
X508386D02*
D03*
X518386D02*
D03*
X528386D02*
D03*
X538386D02*
D03*
X548386D02*
D03*
X558386D02*
D03*
X568386D02*
D03*
X258386Y461260D02*
D03*
X268386D02*
D03*
X278386D02*
D03*
X288386D02*
D03*
X298386D02*
D03*
X308386D02*
D03*
X318386D02*
D03*
X328386D02*
D03*
X338386D02*
D03*
X348386D02*
D03*
X358386D02*
D03*
X368386D02*
D03*
X378386D02*
D03*
X388386D02*
D03*
X398386D02*
D03*
X408386D02*
D03*
X418386D02*
D03*
X428386D02*
D03*
X438386D02*
D03*
X448386D02*
D03*
X458386D02*
D03*
X468386D02*
D03*
X478386D02*
D03*
X488386D02*
D03*
X498386D02*
D03*
X508386D02*
D03*
X518386D02*
D03*
X528386D02*
D03*
X538386D02*
D03*
X548386D02*
D03*
X558386D02*
D03*
X568386D02*
D03*
X258386Y451260D02*
D03*
X268386D02*
D03*
X278386D02*
D03*
X288386D02*
D03*
X298386D02*
D03*
X308386D02*
D03*
X318386D02*
D03*
X328386D02*
D03*
X338386D02*
D03*
X348386D02*
D03*
X358386D02*
D03*
X368386D02*
D03*
X378386D02*
D03*
X388386D02*
D03*
X398386D02*
D03*
X408386D02*
D03*
X418386D02*
D03*
X428386D02*
D03*
X438386D02*
D03*
X448386D02*
D03*
X458386D02*
D03*
X468386D02*
D03*
X478386D02*
D03*
X488386D02*
D03*
X498386D02*
D03*
X508386D02*
D03*
X518386D02*
D03*
X528386D02*
D03*
X538386D02*
D03*
X548386D02*
D03*
X558386D02*
D03*
X568386D02*
D03*
X456693Y29331D02*
D03*
X399606D02*
D03*
X397244Y10039D02*
D03*
X459055D02*
D03*
D203*
X155315Y305512D02*
D03*
D204*
X431693Y313386D02*
D03*
X132480D02*
D03*
X132480Y128347D02*
D03*
X431693D02*
D03*
X61417Y75787D02*
D03*
D205*
X184055Y62992D02*
D03*
X176181D02*
D03*
X168307D02*
D03*
X160433D02*
D03*
X152559D02*
D03*
X172244Y57087D02*
D03*
X164370D02*
D03*
X184055Y50394D02*
D03*
X176181D02*
D03*
X168307D02*
D03*
X160433D02*
D03*
X152559D02*
D03*
X172244Y44488D02*
D03*
X164370D02*
D03*
D206*
X182087Y57087D02*
D03*
X154527D02*
D03*
X182087Y44488D02*
D03*
X154527D02*
D03*
D207*
X353661Y51811D02*
D03*
X326102D02*
D03*
X353661Y41575D02*
D03*
X326102D02*
D03*
X267583Y51575D02*
D03*
X240024D02*
D03*
X267583Y41339D02*
D03*
X240024D02*
D03*
D208*
X343819Y51811D02*
D03*
X335945D02*
D03*
X343819Y41575D02*
D03*
X335945D02*
D03*
X257740Y51575D02*
D03*
X249867D02*
D03*
X257740Y41339D02*
D03*
X249867D02*
D03*
D209*
X365866Y53268D02*
D03*
X365748Y30906D02*
D03*
X314134Y53268D02*
D03*
X314016Y30906D02*
D03*
X279788Y53031D02*
D03*
X279670Y30669D02*
D03*
X228056Y53031D02*
D03*
X227937Y30669D02*
D03*
D210*
X89764Y278819D02*
D03*
Y288819D02*
D03*
Y298819D02*
D03*
Y308819D02*
D03*
D211*
X91024Y471850D02*
D03*
X61024D02*
D03*
X31024D02*
D03*
D212*
Y361850D02*
D03*
X91024D02*
D03*
D213*
X582579Y13780D02*
D03*
X592579Y19764D02*
D03*
X622382Y13780D02*
D03*
X632382Y19764D02*
D03*
X589980Y58071D02*
D03*
X594980Y68071D02*
D03*
X599980Y58071D02*
D03*
X604980Y68071D02*
D03*
X609980Y58071D02*
D03*
X614980Y68071D02*
D03*
X619980Y58071D02*
D03*
X624980Y68071D02*
D03*
X629980Y33071D02*
D03*
X584980D02*
D03*
D214*
X638091Y45079D02*
D03*
X576870D02*
D03*
D215*
X41929Y28937D02*
D03*
D216*
Y53543D02*
D03*
D217*
X60827Y41732D02*
D03*
M02*
