G04*
G04 #@! TF.GenerationSoftware,Altium Limited,Altium Designer,21.2.2 (38)*
G04*
G04 Layer_Color=8388736*
%FSLAX25Y25*%
%MOIN*%
G70*
G04*
G04 #@! TF.SameCoordinates,9A9FBC94-F95F-4755-83A8-F293FEA714C6*
G04*
G04*
G04 #@! TF.FilePolarity,Negative*
G04*
G01*
G75*
%ADD89R,0.05209X0.12139*%
%ADD90R,0.03556X0.04343*%
%ADD91R,0.04343X0.03556*%
%ADD92R,0.03162X0.04343*%
%ADD93R,0.04737X0.03162*%
%ADD94R,0.04737X0.06115*%
%ADD95O,0.03162X0.06509*%
%ADD96C,0.02769*%
%ADD97R,0.04540X0.05918*%
%ADD98R,0.06509X0.03162*%
%ADD99O,0.06509X0.03162*%
%ADD100R,0.03162X0.06509*%
%ADD101O,0.03162X0.06509*%
%ADD102R,0.04343X0.03162*%
%ADD103O,0.06509X0.03162*%
%ADD104O,0.05906X0.01968*%
%ADD105R,0.04737X0.06706*%
%ADD106R,0.06706X0.04737*%
%ADD107R,0.05721X0.05721*%
%ADD108R,0.03162X0.04737*%
%ADD109O,0.02375X0.06312*%
%ADD110R,0.06115X0.04737*%
%ADD111R,0.05918X0.04540*%
%ADD112R,0.17335X0.13398*%
%ADD113R,0.07099X0.06312*%
%ADD114R,0.07493X0.04934*%
%ADD115R,0.02165X0.05118*%
%ADD116R,0.01575X0.05118*%
%ADD117R,0.06509X0.13792*%
%ADD118R,0.21800X0.10300*%
%ADD119R,0.08674X0.17335*%
%ADD120R,0.10642X0.10642*%
%ADD121R,0.09461X0.04343*%
%ADD122R,0.10787X0.12362*%
%ADD123R,0.03898X0.01929*%
%ADD124R,0.11036X0.04934*%
%ADD125R,0.06509X0.05328*%
%ADD126R,0.17139X0.19107*%
%ADD127O,0.03162X0.07296*%
%ADD128R,0.03162X0.07296*%
%ADD129R,0.03543X0.04921*%
%ADD130R,0.03347X0.04921*%
%ADD131R,0.06902X0.06115*%
%ADD132R,0.05229X0.07887*%
%ADD133R,0.08280X0.06115*%
%ADD134R,0.05524X0.04737*%
%ADD135R,0.06115X0.04540*%
%ADD136R,0.01181X0.02618*%
%ADD137R,0.01968X0.02618*%
%ADD138R,0.02461X0.03248*%
%ADD139R,0.05512X0.04724*%
%ADD140R,0.01378X0.03150*%
%ADD141R,0.03150X0.01378*%
%ADD142R,0.13398X0.13398*%
%ADD143R,0.04934X0.07493*%
%ADD144R,0.02769X0.04343*%
%ADD145O,0.02047X0.05906*%
%ADD146R,0.09265X0.08123*%
%ADD147R,0.04934X0.11036*%
%ADD148R,0.15354X0.15354*%
%ADD149R,0.01457X0.03740*%
%ADD150R,0.03740X0.01457*%
%ADD151R,0.01575X0.07874*%
%ADD152R,0.04540X0.06115*%
%ADD153R,0.01378X0.06496*%
%ADD154R,0.05524X0.11627*%
%ADD155R,0.16548X0.07099*%
%ADD156R,0.05328X0.06509*%
%ADD157R,0.19107X0.17139*%
%ADD158R,0.06312X0.07099*%
%ADD159C,0.12611*%
%ADD160C,0.06800*%
%ADD161R,0.06800X0.06800*%
%ADD162R,0.06800X0.06800*%
%ADD163C,0.06902*%
%ADD164C,0.08280*%
%ADD165C,0.10642*%
%ADD166C,0.16548*%
%ADD167C,0.07493*%
%ADD168C,0.00800*%
%ADD169C,0.06706*%
%ADD170C,0.20485*%
%ADD171C,0.05131*%
%ADD172C,0.05524*%
%ADD173C,0.07099*%
%ADD174C,0.06312*%
%ADD175C,0.11036*%
%ADD176C,0.08556*%
%ADD177C,0.11627*%
%ADD178C,0.14580*%
%ADD179C,0.06115*%
%ADD180C,0.09461*%
%ADD181O,0.17335X0.09461*%
%ADD182O,0.19304X0.09461*%
%ADD183O,0.09461X0.17335*%
%ADD184C,0.03162*%
D89*
X758661Y47362D02*
D03*
X768504D02*
D03*
X776378D02*
D03*
X786220D02*
D03*
D90*
X332677Y341535D02*
D03*
X327165D02*
D03*
X316929D02*
D03*
X311417D02*
D03*
X342323Y341732D02*
D03*
X347835D02*
D03*
X359842D02*
D03*
X354331D02*
D03*
X473228Y80905D02*
D03*
X467717D02*
D03*
X627559Y342323D02*
D03*
X633071D02*
D03*
X646654Y382087D02*
D03*
X641142D02*
D03*
Y347638D02*
D03*
X646654D02*
D03*
X772621Y425197D02*
D03*
X767109D02*
D03*
X738976Y446654D02*
D03*
X744488D02*
D03*
X795472Y356693D02*
D03*
X789961D02*
D03*
X795472Y350787D02*
D03*
X789961D02*
D03*
X739173Y439944D02*
D03*
X744685D02*
D03*
X655709Y448819D02*
D03*
X661221D02*
D03*
X713189Y404331D02*
D03*
X718701D02*
D03*
X715354Y448819D02*
D03*
X720866D02*
D03*
X80512Y58858D02*
D03*
X86024D02*
D03*
X80512Y51378D02*
D03*
X86024D02*
D03*
X792913Y267913D02*
D03*
X787402D02*
D03*
X590748Y382874D02*
D03*
X596260D02*
D03*
X733858Y383071D02*
D03*
X739370D02*
D03*
X792913Y259842D02*
D03*
X787402D02*
D03*
X761024Y317717D02*
D03*
X766535D02*
D03*
X595079Y346063D02*
D03*
X589567D02*
D03*
X737598Y338386D02*
D03*
X743110D02*
D03*
X552953Y382480D02*
D03*
X558465D02*
D03*
X556693Y344488D02*
D03*
X551181D02*
D03*
X758465Y159646D02*
D03*
X752953D02*
D03*
X770669Y174803D02*
D03*
X776181D02*
D03*
X772441Y111024D02*
D03*
X766929D02*
D03*
X704528Y141142D02*
D03*
X699016D02*
D03*
X280118Y397441D02*
D03*
X274606D02*
D03*
X279724Y344094D02*
D03*
X274213D02*
D03*
X179134Y382677D02*
D03*
X173622D02*
D03*
X154527Y346063D02*
D03*
X149016D02*
D03*
X232283Y121653D02*
D03*
X237795D02*
D03*
X228543Y97244D02*
D03*
X234055D02*
D03*
X649213Y104331D02*
D03*
X643701D02*
D03*
X733661Y45669D02*
D03*
X728150D02*
D03*
Y35039D02*
D03*
X733661D02*
D03*
X731693Y6693D02*
D03*
X726181D02*
D03*
X650787Y13583D02*
D03*
X656299D02*
D03*
X656299Y19685D02*
D03*
X650787D02*
D03*
X514961Y93110D02*
D03*
X520472D02*
D03*
X475984Y19488D02*
D03*
X470472D02*
D03*
X556693Y9449D02*
D03*
X562205D02*
D03*
X512795Y141535D02*
D03*
X518307D02*
D03*
X497244D02*
D03*
X502756D02*
D03*
X485433Y111221D02*
D03*
X479921D02*
D03*
X470866D02*
D03*
X465354D02*
D03*
X585630Y111614D02*
D03*
X580118D02*
D03*
X643701Y115945D02*
D03*
X638189D02*
D03*
X622441Y100394D02*
D03*
X627953D02*
D03*
X623228Y116339D02*
D03*
X628740D02*
D03*
X600394Y108858D02*
D03*
X594882D02*
D03*
X591732Y82677D02*
D03*
X586221D02*
D03*
X597047D02*
D03*
X602559D02*
D03*
X622835D02*
D03*
X628346D02*
D03*
X617520D02*
D03*
X612008D02*
D03*
X807480Y63189D02*
D03*
X801968D02*
D03*
X791142D02*
D03*
X796654D02*
D03*
X755512Y84252D02*
D03*
X750000D02*
D03*
X488189Y305315D02*
D03*
X493701D02*
D03*
X377756Y71653D02*
D03*
X383268D02*
D03*
X377756Y64961D02*
D03*
X383268D02*
D03*
X377756Y58268D02*
D03*
X383268D02*
D03*
X401968Y81890D02*
D03*
X407480D02*
D03*
X459449Y75197D02*
D03*
X453937D02*
D03*
X459449Y81102D02*
D03*
X453937D02*
D03*
X406102Y67913D02*
D03*
X400591D02*
D03*
X406102Y62008D02*
D03*
X400591D02*
D03*
X452165Y69291D02*
D03*
X457677D02*
D03*
X452165Y62992D02*
D03*
X457677D02*
D03*
X295276Y104724D02*
D03*
X300787D02*
D03*
X289961Y46260D02*
D03*
X295472D02*
D03*
X210630Y107677D02*
D03*
X216142D02*
D03*
X210630Y48819D02*
D03*
X216142D02*
D03*
X122835Y98819D02*
D03*
X117323D02*
D03*
X36417Y486811D02*
D03*
X30906D02*
D03*
X102953Y185039D02*
D03*
X97441D02*
D03*
X53543Y246457D02*
D03*
X59055D02*
D03*
X26181Y184843D02*
D03*
X20669D02*
D03*
X187402Y463976D02*
D03*
X181890D02*
D03*
X176969Y417126D02*
D03*
X171457D02*
D03*
X21063Y300590D02*
D03*
X26575D02*
D03*
Y291339D02*
D03*
X21063D02*
D03*
X28740Y309252D02*
D03*
X34252D02*
D03*
X195276Y455905D02*
D03*
X200787D02*
D03*
X541732Y296063D02*
D03*
X547244D02*
D03*
D91*
X177362Y322638D02*
D03*
Y328150D02*
D03*
X183268Y322638D02*
D03*
Y328150D02*
D03*
X458661Y110433D02*
D03*
Y115945D02*
D03*
X452165Y115945D02*
D03*
Y110433D02*
D03*
X656693Y341732D02*
D03*
Y347244D02*
D03*
X712402Y415748D02*
D03*
Y410236D02*
D03*
X731693Y408268D02*
D03*
Y402756D02*
D03*
X780101Y430512D02*
D03*
Y425000D02*
D03*
X757464Y430709D02*
D03*
Y425197D02*
D03*
X613976Y430512D02*
D03*
Y425000D02*
D03*
X722047Y177756D02*
D03*
Y172244D02*
D03*
X730512Y177756D02*
D03*
Y172244D02*
D03*
X561024Y256299D02*
D03*
Y250787D02*
D03*
X555512Y137992D02*
D03*
Y132480D02*
D03*
X740945Y409646D02*
D03*
Y404134D02*
D03*
X746850Y401575D02*
D03*
Y407087D02*
D03*
X613779Y476378D02*
D03*
Y470866D02*
D03*
X798622Y405512D02*
D03*
Y400000D02*
D03*
X805332Y405512D02*
D03*
Y400000D02*
D03*
X760039Y460827D02*
D03*
Y455315D02*
D03*
Y479134D02*
D03*
Y473622D02*
D03*
X660433Y460433D02*
D03*
Y454921D02*
D03*
X658268Y421457D02*
D03*
Y415945D02*
D03*
X668504Y405118D02*
D03*
Y410630D02*
D03*
Y421457D02*
D03*
Y415945D02*
D03*
X787008Y478543D02*
D03*
Y473032D02*
D03*
X787402Y460827D02*
D03*
Y455315D02*
D03*
X675787Y399016D02*
D03*
Y404528D02*
D03*
X744472Y422638D02*
D03*
Y417126D02*
D03*
X675984Y417717D02*
D03*
Y412205D02*
D03*
X674016Y443701D02*
D03*
Y449213D02*
D03*
X673819Y461024D02*
D03*
Y455512D02*
D03*
X666929Y449016D02*
D03*
Y454528D02*
D03*
X713189Y459449D02*
D03*
Y453937D02*
D03*
X777953Y104528D02*
D03*
Y99016D02*
D03*
X802953Y265158D02*
D03*
Y270669D02*
D03*
X668504Y324213D02*
D03*
Y318701D02*
D03*
X674606Y324213D02*
D03*
Y318701D02*
D03*
X680709Y324213D02*
D03*
Y318701D02*
D03*
X685827Y338976D02*
D03*
Y344488D02*
D03*
X600787Y347835D02*
D03*
Y342323D02*
D03*
X606693Y347835D02*
D03*
Y342323D02*
D03*
X569488Y339370D02*
D03*
Y344882D02*
D03*
X562402Y339370D02*
D03*
Y344882D02*
D03*
X776181Y162598D02*
D03*
Y168110D02*
D03*
X502165Y335236D02*
D03*
Y340748D02*
D03*
X512205Y335236D02*
D03*
Y340748D02*
D03*
X522244Y335236D02*
D03*
Y340748D02*
D03*
X532087Y335236D02*
D03*
Y340748D02*
D03*
X452165Y335236D02*
D03*
Y340748D02*
D03*
X462205Y335236D02*
D03*
Y340748D02*
D03*
X472244Y335236D02*
D03*
Y340748D02*
D03*
X482283Y335236D02*
D03*
Y340748D02*
D03*
X759842Y127165D02*
D03*
Y132677D02*
D03*
X669685Y81693D02*
D03*
Y87205D02*
D03*
X292126Y409055D02*
D03*
Y414567D02*
D03*
X84646Y250591D02*
D03*
Y256102D02*
D03*
X137205Y357677D02*
D03*
Y352165D02*
D03*
X143701Y357677D02*
D03*
Y352165D02*
D03*
X150197Y357677D02*
D03*
Y352165D02*
D03*
X130709Y357677D02*
D03*
Y352165D02*
D03*
X247638Y135039D02*
D03*
Y129528D02*
D03*
X588779Y136614D02*
D03*
Y131102D02*
D03*
X582087Y141142D02*
D03*
Y146653D02*
D03*
X713779Y87205D02*
D03*
Y81693D02*
D03*
X664370Y13780D02*
D03*
Y19291D02*
D03*
X675984Y81693D02*
D03*
Y87205D02*
D03*
X694882Y81693D02*
D03*
Y87205D02*
D03*
X682283Y81693D02*
D03*
Y87205D02*
D03*
X707480Y81693D02*
D03*
Y87205D02*
D03*
X701181Y81693D02*
D03*
Y87205D02*
D03*
X688583Y81693D02*
D03*
Y87205D02*
D03*
X563779Y30315D02*
D03*
Y24803D02*
D03*
X636811Y155118D02*
D03*
Y149606D02*
D03*
X626181Y146260D02*
D03*
Y151772D02*
D03*
X654528Y123819D02*
D03*
Y129331D02*
D03*
X623228Y134252D02*
D03*
Y128740D02*
D03*
X605315Y141339D02*
D03*
Y146850D02*
D03*
X643110Y82677D02*
D03*
Y88189D02*
D03*
X636417Y82677D02*
D03*
Y88189D02*
D03*
X784252Y87008D02*
D03*
Y81496D02*
D03*
X425394Y221260D02*
D03*
Y226772D02*
D03*
X368504Y123228D02*
D03*
Y117717D02*
D03*
X78150Y229724D02*
D03*
Y235236D02*
D03*
X62402Y171457D02*
D03*
Y165945D02*
D03*
X69095Y171457D02*
D03*
Y165945D02*
D03*
X191142Y282677D02*
D03*
Y288189D02*
D03*
X417323Y111811D02*
D03*
Y117323D02*
D03*
X411221Y111811D02*
D03*
Y117323D02*
D03*
X405118Y111811D02*
D03*
Y117323D02*
D03*
X399016Y111811D02*
D03*
Y117323D02*
D03*
X392913Y111811D02*
D03*
Y117323D02*
D03*
X386811Y111811D02*
D03*
Y117323D02*
D03*
X380709Y111811D02*
D03*
Y117323D02*
D03*
X374606Y111811D02*
D03*
Y117323D02*
D03*
X445669Y91339D02*
D03*
Y96850D02*
D03*
X405118Y40551D02*
D03*
Y46063D02*
D03*
X385630Y40551D02*
D03*
Y46063D02*
D03*
X398622D02*
D03*
Y40551D02*
D03*
X392126Y46063D02*
D03*
Y40551D02*
D03*
X415354Y86221D02*
D03*
Y80709D02*
D03*
X305709Y70669D02*
D03*
Y65158D02*
D03*
X221260Y70472D02*
D03*
Y64961D02*
D03*
X104528Y55118D02*
D03*
Y60630D02*
D03*
X105709Y28150D02*
D03*
Y33661D02*
D03*
X39961Y241732D02*
D03*
Y247244D02*
D03*
X20079Y272441D02*
D03*
Y266929D02*
D03*
X42717Y270472D02*
D03*
Y264961D02*
D03*
X57480Y270866D02*
D03*
Y276378D02*
D03*
X106496Y293110D02*
D03*
Y298622D02*
D03*
X42717Y259646D02*
D03*
Y254134D02*
D03*
X160039Y423032D02*
D03*
Y428543D02*
D03*
X172441Y423032D02*
D03*
Y428543D02*
D03*
X166339Y423032D02*
D03*
Y428543D02*
D03*
X27165Y330512D02*
D03*
Y336024D02*
D03*
X49213Y323917D02*
D03*
Y318406D02*
D03*
D92*
X321850Y347441D02*
D03*
X318110Y356496D02*
D03*
X325590D02*
D03*
X336417Y347441D02*
D03*
X332677Y356496D02*
D03*
X340158D02*
D03*
X261811Y340551D02*
D03*
X258071Y349606D02*
D03*
X265551D02*
D03*
X246654Y340748D02*
D03*
X242913Y349803D02*
D03*
X250394D02*
D03*
X457874Y91339D02*
D03*
X454134Y100394D02*
D03*
X461614D02*
D03*
X473032Y91339D02*
D03*
X469291Y100394D02*
D03*
X476772D02*
D03*
X504724Y404134D02*
D03*
X508465Y395079D02*
D03*
X500984D02*
D03*
X506693Y442717D02*
D03*
X510433Y433661D02*
D03*
X502953D02*
D03*
X516142Y395079D02*
D03*
X523622D02*
D03*
X519882Y404134D02*
D03*
X486024Y395079D02*
D03*
X493504D02*
D03*
X489764Y404134D02*
D03*
X805709Y392126D02*
D03*
X798228D02*
D03*
X801968Y383071D02*
D03*
X752953Y165748D02*
D03*
X760433D02*
D03*
X756693Y174803D02*
D03*
X422047Y395669D02*
D03*
X429528D02*
D03*
X425787Y404724D02*
D03*
X407283Y395669D02*
D03*
X414764D02*
D03*
X411024Y404724D02*
D03*
X392520Y395669D02*
D03*
X400000D02*
D03*
X396260Y404724D02*
D03*
X377756Y395669D02*
D03*
X385236D02*
D03*
X381496Y404724D02*
D03*
X362992Y395669D02*
D03*
X370472D02*
D03*
X366732Y404724D02*
D03*
X348228Y395669D02*
D03*
X355709D02*
D03*
X351969Y404724D02*
D03*
X333661Y395669D02*
D03*
X341142D02*
D03*
X337402Y404724D02*
D03*
X318898Y395669D02*
D03*
X326378D02*
D03*
X322638Y404724D02*
D03*
X287008Y434646D02*
D03*
X294488D02*
D03*
X290748Y443701D02*
D03*
X312598Y443898D02*
D03*
X305118D02*
D03*
X308858Y434842D02*
D03*
X232283Y115748D02*
D03*
X224803D02*
D03*
X228543Y106693D02*
D03*
X733661Y28937D02*
D03*
X726181D02*
D03*
X729921Y19882D02*
D03*
X739961Y59252D02*
D03*
X747441D02*
D03*
X743701Y68307D02*
D03*
D93*
X358465Y355709D02*
D03*
Y351969D02*
D03*
Y348228D02*
D03*
X347835D02*
D03*
Y351969D02*
D03*
Y355709D02*
D03*
X366732Y348228D02*
D03*
Y351969D02*
D03*
Y355709D02*
D03*
X377362D02*
D03*
Y351969D02*
D03*
Y348228D02*
D03*
X32283Y250984D02*
D03*
Y247244D02*
D03*
Y243504D02*
D03*
X21654D02*
D03*
Y247244D02*
D03*
Y250984D02*
D03*
X28740Y316240D02*
D03*
Y319980D02*
D03*
Y323721D02*
D03*
X39370D02*
D03*
Y319980D02*
D03*
Y316240D02*
D03*
D94*
X453937Y308957D02*
D03*
Y320177D02*
D03*
X801181Y176673D02*
D03*
Y187894D02*
D03*
X379724Y21358D02*
D03*
Y32579D02*
D03*
X388976Y21260D02*
D03*
Y32480D02*
D03*
D95*
X646634Y354035D02*
D03*
X651634D02*
D03*
X656634D02*
D03*
X661634D02*
D03*
X646634Y375492D02*
D03*
X651634D02*
D03*
X656634D02*
D03*
X661634D02*
D03*
X802776Y252658D02*
D03*
X797776D02*
D03*
X792776D02*
D03*
X787776D02*
D03*
X802776Y231201D02*
D03*
X797776D02*
D03*
X792776D02*
D03*
X787776D02*
D03*
X611240Y375492D02*
D03*
X606240D02*
D03*
X601240D02*
D03*
X596240D02*
D03*
X611240Y354035D02*
D03*
X606240D02*
D03*
X601240D02*
D03*
X596240D02*
D03*
X573445Y375492D02*
D03*
X568445D02*
D03*
X563445D02*
D03*
X558445D02*
D03*
X573445Y354035D02*
D03*
X568445D02*
D03*
X563445D02*
D03*
X558445D02*
D03*
D96*
X604921Y454921D02*
D03*
Y458858D02*
D03*
Y443278D02*
D03*
Y439341D02*
D03*
X605315Y466929D02*
D03*
Y462992D02*
D03*
X604921Y447047D02*
D03*
Y450984D02*
D03*
D97*
X542520Y442126D02*
D03*
X535236D02*
D03*
X564075Y399606D02*
D03*
X571358D02*
D03*
X556988D02*
D03*
X549705D02*
D03*
X542815D02*
D03*
X535532D02*
D03*
X690650Y424151D02*
D03*
X697933D02*
D03*
X691437Y467913D02*
D03*
X698721D02*
D03*
X527658Y421457D02*
D03*
X520374D02*
D03*
X792520Y187008D02*
D03*
X785236D02*
D03*
X302165Y14764D02*
D03*
X294882D02*
D03*
X445374Y106102D02*
D03*
X438091D02*
D03*
X161221Y344685D02*
D03*
X168504D02*
D03*
X235827Y90354D02*
D03*
X228543D02*
D03*
X203248Y16339D02*
D03*
X210531D02*
D03*
X463976Y39961D02*
D03*
X456693D02*
D03*
X400000Y75000D02*
D03*
X407283D02*
D03*
X459941Y55709D02*
D03*
X452658D02*
D03*
X28839Y236221D02*
D03*
X21555D02*
D03*
X60925Y486811D02*
D03*
X68209D02*
D03*
X191043Y414961D02*
D03*
X183760D02*
D03*
X83760Y340158D02*
D03*
X76476D02*
D03*
D98*
X621063Y481277D02*
D03*
X621161Y435020D02*
D03*
D99*
X621063Y476277D02*
D03*
Y471277D02*
D03*
Y466277D02*
D03*
Y461277D02*
D03*
Y456277D02*
D03*
Y451277D02*
D03*
Y446277D02*
D03*
X642520Y481277D02*
D03*
Y476277D02*
D03*
Y471277D02*
D03*
Y466277D02*
D03*
Y461277D02*
D03*
Y456277D02*
D03*
Y451277D02*
D03*
Y446277D02*
D03*
X621161Y430020D02*
D03*
Y425020D02*
D03*
Y420020D02*
D03*
Y415020D02*
D03*
Y410020D02*
D03*
Y405020D02*
D03*
Y400020D02*
D03*
X642618Y435020D02*
D03*
Y430020D02*
D03*
Y425020D02*
D03*
Y420020D02*
D03*
Y415020D02*
D03*
Y410020D02*
D03*
Y405020D02*
D03*
Y400020D02*
D03*
D100*
X536532Y412894D02*
D03*
X693720Y323130D02*
D03*
X487185Y377165D02*
D03*
X537185D02*
D03*
D101*
X541533Y412894D02*
D03*
X546532D02*
D03*
X551533D02*
D03*
X556532D02*
D03*
X561532D02*
D03*
X566533D02*
D03*
X571532D02*
D03*
X536532Y434350D02*
D03*
X541533D02*
D03*
X546532D02*
D03*
X551533D02*
D03*
X556532D02*
D03*
X561532D02*
D03*
X566533D02*
D03*
X571532D02*
D03*
X698721Y323130D02*
D03*
X703721D02*
D03*
X708720D02*
D03*
X713721D02*
D03*
X718720D02*
D03*
X723721D02*
D03*
X728721D02*
D03*
X693720Y344587D02*
D03*
X698721D02*
D03*
X703721D02*
D03*
X708720D02*
D03*
X713721D02*
D03*
X718720D02*
D03*
X723721D02*
D03*
X728721D02*
D03*
X452185Y352362D02*
D03*
X457185D02*
D03*
X462185D02*
D03*
X467185D02*
D03*
X472185D02*
D03*
X477185D02*
D03*
X482185D02*
D03*
X487185D02*
D03*
X452185Y377165D02*
D03*
X457185D02*
D03*
X462185D02*
D03*
X467185D02*
D03*
X472185D02*
D03*
X477185D02*
D03*
X482185D02*
D03*
X502185Y352362D02*
D03*
X507185D02*
D03*
X512185D02*
D03*
X517185D02*
D03*
X522185D02*
D03*
X527185D02*
D03*
X532185D02*
D03*
X537185D02*
D03*
X502185Y377165D02*
D03*
X507185D02*
D03*
X512185D02*
D03*
X517185D02*
D03*
X522185D02*
D03*
X527185D02*
D03*
X532185D02*
D03*
D102*
X777362Y473032D02*
D03*
Y480512D02*
D03*
X768307Y476772D02*
D03*
X776772Y455118D02*
D03*
Y462598D02*
D03*
X767717Y458858D02*
D03*
X68504Y254331D02*
D03*
Y246850D02*
D03*
X77559Y250590D02*
D03*
X216929Y137008D02*
D03*
Y129528D02*
D03*
X225984Y133268D02*
D03*
X241339Y129528D02*
D03*
Y137008D02*
D03*
X232283Y133268D02*
D03*
X328937Y66142D02*
D03*
X319882Y62402D02*
D03*
Y69882D02*
D03*
X294291Y27362D02*
D03*
X303346Y31102D02*
D03*
Y23622D02*
D03*
X208858Y29724D02*
D03*
X217913Y33465D02*
D03*
Y25984D02*
D03*
X244685Y66339D02*
D03*
X235630Y62598D02*
D03*
Y70079D02*
D03*
X121850Y49409D02*
D03*
X130905Y53150D02*
D03*
Y45669D02*
D03*
X123031Y21850D02*
D03*
X132087Y25591D02*
D03*
Y18110D02*
D03*
X35630Y268701D02*
D03*
X26575Y264961D02*
D03*
Y272441D02*
D03*
X77559Y265354D02*
D03*
X68504Y261614D02*
D03*
Y269094D02*
D03*
X113976Y275197D02*
D03*
X104921Y271457D02*
D03*
Y278937D02*
D03*
D103*
X705905Y443819D02*
D03*
Y448819D02*
D03*
Y453819D02*
D03*
Y458819D02*
D03*
X684449Y443819D02*
D03*
Y448819D02*
D03*
Y453819D02*
D03*
Y458819D02*
D03*
X705217Y400177D02*
D03*
Y405177D02*
D03*
Y410177D02*
D03*
Y415177D02*
D03*
X683760Y400177D02*
D03*
Y405177D02*
D03*
Y410177D02*
D03*
Y415177D02*
D03*
D104*
X753723Y418012D02*
D03*
Y415453D02*
D03*
Y412894D02*
D03*
Y410335D02*
D03*
Y407776D02*
D03*
Y405217D02*
D03*
Y402658D02*
D03*
Y400098D02*
D03*
X776952Y418012D02*
D03*
Y415453D02*
D03*
Y412894D02*
D03*
Y410335D02*
D03*
Y407776D02*
D03*
Y405217D02*
D03*
Y402658D02*
D03*
Y400098D02*
D03*
D105*
X612598Y287598D02*
D03*
X618504D02*
D03*
X624409D02*
D03*
X630315D02*
D03*
X636221D02*
D03*
X642126D02*
D03*
X648032D02*
D03*
X653937D02*
D03*
X659842D02*
D03*
X665748D02*
D03*
X671654D02*
D03*
X677559D02*
D03*
X683464D02*
D03*
X689370D02*
D03*
X695276D02*
D03*
X701181D02*
D03*
X707087D02*
D03*
X712992D02*
D03*
X718898D02*
D03*
X724803D02*
D03*
X730709D02*
D03*
X736614D02*
D03*
X742520D02*
D03*
X748425D02*
D03*
X754331D02*
D03*
X612598Y296457D02*
D03*
X618504D02*
D03*
X624409D02*
D03*
X630315D02*
D03*
X636221D02*
D03*
X642126D02*
D03*
X648032D02*
D03*
X653937D02*
D03*
X659842D02*
D03*
X665748D02*
D03*
X671654D02*
D03*
X677559D02*
D03*
X683464D02*
D03*
X689370D02*
D03*
X695276D02*
D03*
X701181D02*
D03*
X707087D02*
D03*
X712992D02*
D03*
X718898D02*
D03*
X724803D02*
D03*
X730709D02*
D03*
X736614D02*
D03*
X742520D02*
D03*
X748425D02*
D03*
X754331D02*
D03*
Y195079D02*
D03*
X748425D02*
D03*
X742520D02*
D03*
X736614D02*
D03*
X730709D02*
D03*
X724803D02*
D03*
X718898D02*
D03*
X712992D02*
D03*
X707087D02*
D03*
X701181D02*
D03*
X695276D02*
D03*
X689370D02*
D03*
X683465D02*
D03*
X677559D02*
D03*
X671654D02*
D03*
X665748D02*
D03*
X659842D02*
D03*
X653937D02*
D03*
X648032D02*
D03*
X642126D02*
D03*
X636221D02*
D03*
X630315D02*
D03*
X624409D02*
D03*
X618504D02*
D03*
X612598D02*
D03*
X754331Y186221D02*
D03*
X748425D02*
D03*
X742520D02*
D03*
X736614D02*
D03*
X730709D02*
D03*
X724803D02*
D03*
X718898D02*
D03*
X712992D02*
D03*
X707087D02*
D03*
X701181D02*
D03*
X695276D02*
D03*
X689370D02*
D03*
X683465D02*
D03*
X677559D02*
D03*
X671654D02*
D03*
X665748D02*
D03*
X659842D02*
D03*
X653937D02*
D03*
X648032D02*
D03*
X642126D02*
D03*
X636221D02*
D03*
X630315D02*
D03*
X624409D02*
D03*
X618504D02*
D03*
X612598D02*
D03*
D106*
X765158Y282677D02*
D03*
Y288583D02*
D03*
Y235433D02*
D03*
Y276772D02*
D03*
Y270866D02*
D03*
Y264961D02*
D03*
Y259055D02*
D03*
Y253150D02*
D03*
Y247244D02*
D03*
Y241339D02*
D03*
Y229528D02*
D03*
Y223622D02*
D03*
Y217717D02*
D03*
Y211811D02*
D03*
Y205906D02*
D03*
Y200000D02*
D03*
Y194095D02*
D03*
X774016Y288583D02*
D03*
Y282677D02*
D03*
Y276772D02*
D03*
Y270866D02*
D03*
Y264961D02*
D03*
Y259055D02*
D03*
Y253150D02*
D03*
Y247244D02*
D03*
Y241339D02*
D03*
Y235433D02*
D03*
Y229528D02*
D03*
Y223622D02*
D03*
Y217717D02*
D03*
Y211811D02*
D03*
Y205807D02*
D03*
Y200000D02*
D03*
Y194095D02*
D03*
X601772Y194095D02*
D03*
Y200000D02*
D03*
Y205906D02*
D03*
Y211811D02*
D03*
Y217717D02*
D03*
Y223622D02*
D03*
Y229528D02*
D03*
Y235433D02*
D03*
Y241339D02*
D03*
Y247244D02*
D03*
Y253150D02*
D03*
Y259055D02*
D03*
Y264961D02*
D03*
Y270866D02*
D03*
Y276772D02*
D03*
Y282677D02*
D03*
Y288583D02*
D03*
X592913Y194095D02*
D03*
Y200000D02*
D03*
Y205906D02*
D03*
Y211811D02*
D03*
Y217717D02*
D03*
Y223622D02*
D03*
Y229528D02*
D03*
Y235433D02*
D03*
Y241339D02*
D03*
Y247244D02*
D03*
Y253150D02*
D03*
Y259055D02*
D03*
Y264961D02*
D03*
Y270866D02*
D03*
Y276772D02*
D03*
Y282677D02*
D03*
Y288583D02*
D03*
D107*
X726772Y213779D02*
D03*
Y227559D02*
D03*
Y241339D02*
D03*
Y255118D02*
D03*
Y268898D02*
D03*
X712992Y213779D02*
D03*
Y227559D02*
D03*
Y241339D02*
D03*
Y255118D02*
D03*
Y268898D02*
D03*
X626378Y255118D02*
D03*
Y241339D02*
D03*
Y227559D02*
D03*
Y213779D02*
D03*
X640158Y268898D02*
D03*
Y255118D02*
D03*
Y241339D02*
D03*
Y227559D02*
D03*
Y213779D02*
D03*
X653937Y268898D02*
D03*
Y255118D02*
D03*
Y241339D02*
D03*
Y227559D02*
D03*
Y213779D02*
D03*
X740551Y268898D02*
D03*
Y255118D02*
D03*
Y241339D02*
D03*
Y227559D02*
D03*
Y213779D02*
D03*
D108*
X755118Y317717D02*
D03*
X747638D02*
D03*
Y328346D02*
D03*
X751378D02*
D03*
X755118D02*
D03*
X466142Y130709D02*
D03*
X473622D02*
D03*
Y120079D02*
D03*
X469882D02*
D03*
X466142D02*
D03*
X481693Y130709D02*
D03*
X489173D02*
D03*
Y120079D02*
D03*
X485433D02*
D03*
X481693D02*
D03*
X497244D02*
D03*
X500984D02*
D03*
X504724D02*
D03*
Y130709D02*
D03*
X500984D02*
D03*
X497244D02*
D03*
X512795Y120079D02*
D03*
X516535D02*
D03*
X520276D02*
D03*
Y130709D02*
D03*
X516535D02*
D03*
X512795D02*
D03*
X528543Y130512D02*
D03*
X536024D02*
D03*
Y119882D02*
D03*
X532283D02*
D03*
X528543D02*
D03*
X768898Y59252D02*
D03*
X772638D02*
D03*
X776378D02*
D03*
Y69882D02*
D03*
X772638D02*
D03*
X768898D02*
D03*
X267717Y74016D02*
D03*
X271457D02*
D03*
X275197D02*
D03*
Y63386D02*
D03*
X271457D02*
D03*
X267717D02*
D03*
X194685Y87402D02*
D03*
X190945D02*
D03*
X187205D02*
D03*
Y76772D02*
D03*
X190945D02*
D03*
X194685D02*
D03*
X139173Y86221D02*
D03*
X135433D02*
D03*
X131693D02*
D03*
Y75590D02*
D03*
X135433D02*
D03*
X139173D02*
D03*
X352165Y62992D02*
D03*
X355906D02*
D03*
X359646D02*
D03*
Y73622D02*
D03*
X355906D02*
D03*
X352165D02*
D03*
X337008Y62992D02*
D03*
X340748D02*
D03*
X344488D02*
D03*
Y73622D02*
D03*
X340748D02*
D03*
X337008D02*
D03*
X252362Y63386D02*
D03*
X256102D02*
D03*
X259842D02*
D03*
Y74016D02*
D03*
X256102D02*
D03*
X252362D02*
D03*
X57284Y254331D02*
D03*
X53543D02*
D03*
X49803D02*
D03*
Y264961D02*
D03*
X53543D02*
D03*
X57284D02*
D03*
D109*
X764272Y375394D02*
D03*
X761713D02*
D03*
X759154D02*
D03*
X756595D02*
D03*
X754035D02*
D03*
X751476D02*
D03*
X748917D02*
D03*
X746358D02*
D03*
X743799D02*
D03*
X741240D02*
D03*
X764272Y345472D02*
D03*
X761713D02*
D03*
X759154D02*
D03*
X756595D02*
D03*
X754035D02*
D03*
X751476D02*
D03*
X748917D02*
D03*
X746358D02*
D03*
X743799D02*
D03*
X741240D02*
D03*
D110*
X787894Y341339D02*
D03*
X776673D02*
D03*
X493701Y297244D02*
D03*
X504921D02*
D03*
D111*
X283465Y66831D02*
D03*
Y74114D02*
D03*
X395276Y442815D02*
D03*
Y435532D02*
D03*
X385236Y442815D02*
D03*
Y435532D02*
D03*
X375197Y442717D02*
D03*
Y435433D02*
D03*
X365158Y442717D02*
D03*
Y435433D02*
D03*
X355118Y442815D02*
D03*
Y435532D02*
D03*
X345276Y442913D02*
D03*
Y435630D02*
D03*
X335236Y443012D02*
D03*
Y435728D02*
D03*
X325197Y443110D02*
D03*
Y435827D02*
D03*
X285433Y414567D02*
D03*
Y407283D02*
D03*
X298819D02*
D03*
Y414567D02*
D03*
X154724Y373327D02*
D03*
Y366043D02*
D03*
X161221Y358760D02*
D03*
Y351476D02*
D03*
X177165Y445571D02*
D03*
Y438287D02*
D03*
X93110Y173130D02*
D03*
Y165847D02*
D03*
X84842Y173130D02*
D03*
Y165847D02*
D03*
X76575Y173130D02*
D03*
Y165847D02*
D03*
X630118Y136909D02*
D03*
Y129626D02*
D03*
X809646Y38386D02*
D03*
Y45669D02*
D03*
X183858Y422342D02*
D03*
Y429626D02*
D03*
X33268Y293209D02*
D03*
Y300492D02*
D03*
D112*
X504724Y168504D02*
D03*
Y283858D02*
D03*
D113*
X747244Y114370D02*
D03*
X715748D02*
D03*
X747244Y132087D02*
D03*
X715748D02*
D03*
X667520D02*
D03*
X699016D02*
D03*
X667520Y114370D02*
D03*
X699016D02*
D03*
D114*
X476378Y428051D02*
D03*
Y416437D02*
D03*
X466535Y428051D02*
D03*
Y416437D02*
D03*
X456890Y428051D02*
D03*
Y416437D02*
D03*
X447244Y428150D02*
D03*
Y416535D02*
D03*
X437598Y416634D02*
D03*
Y428248D02*
D03*
X408661Y416634D02*
D03*
Y428248D02*
D03*
X427953Y416634D02*
D03*
Y428248D02*
D03*
X418110Y416634D02*
D03*
Y428248D02*
D03*
X270669Y424705D02*
D03*
Y436319D02*
D03*
X114961Y375886D02*
D03*
Y364272D02*
D03*
X135433Y365256D02*
D03*
Y376870D02*
D03*
X145079Y365256D02*
D03*
Y376870D02*
D03*
X176575Y354035D02*
D03*
Y342421D02*
D03*
X186417Y354134D02*
D03*
Y342520D02*
D03*
X298031Y73524D02*
D03*
Y61910D02*
D03*
X213386Y76870D02*
D03*
Y65256D02*
D03*
X112795Y60630D02*
D03*
Y49016D02*
D03*
X113583Y33658D02*
D03*
Y22044D02*
D03*
X167323Y447736D02*
D03*
Y436122D02*
D03*
X157874Y447736D02*
D03*
Y436122D02*
D03*
X198425Y419390D02*
D03*
Y431004D02*
D03*
X208268Y419291D02*
D03*
Y430905D02*
D03*
X173819Y476181D02*
D03*
Y464567D02*
D03*
X69095Y324705D02*
D03*
Y313091D02*
D03*
X57284Y324705D02*
D03*
Y313091D02*
D03*
X85236Y332874D02*
D03*
Y321260D02*
D03*
D115*
X376476Y316142D02*
D03*
X161319D02*
D03*
X376476Y294882D02*
D03*
X161319D02*
D03*
D116*
X374213Y316142D02*
D03*
X372244D02*
D03*
X370276D02*
D03*
X368307D02*
D03*
X366339D02*
D03*
X364370D02*
D03*
X362402D02*
D03*
X360433D02*
D03*
X358465D02*
D03*
X356496D02*
D03*
X354528D02*
D03*
X352559D02*
D03*
X350590D02*
D03*
X348622D02*
D03*
X346654D02*
D03*
X344685D02*
D03*
X342717D02*
D03*
X340748D02*
D03*
X338779D02*
D03*
X336811D02*
D03*
X334842D02*
D03*
X332874D02*
D03*
X330906D02*
D03*
X328937D02*
D03*
X326969D02*
D03*
X325000D02*
D03*
X323031D02*
D03*
X321063D02*
D03*
X319094D02*
D03*
X317126D02*
D03*
X315158D02*
D03*
X313189D02*
D03*
X311221D02*
D03*
X309252D02*
D03*
X307283D02*
D03*
X305315D02*
D03*
X303346D02*
D03*
X301378D02*
D03*
X299410D02*
D03*
X297441D02*
D03*
X295472D02*
D03*
X293504D02*
D03*
X291535D02*
D03*
X289567D02*
D03*
X287598D02*
D03*
X285630D02*
D03*
X283661D02*
D03*
X281693D02*
D03*
X279724D02*
D03*
X277756D02*
D03*
X275787D02*
D03*
X273819D02*
D03*
X271850D02*
D03*
X269882D02*
D03*
X267913D02*
D03*
X265945D02*
D03*
X263976D02*
D03*
X262008D02*
D03*
X260039D02*
D03*
X258071D02*
D03*
X256102D02*
D03*
X254134D02*
D03*
X252165D02*
D03*
X250197D02*
D03*
X248228D02*
D03*
X246260D02*
D03*
X244291D02*
D03*
X242323D02*
D03*
X240354D02*
D03*
X238386D02*
D03*
X236417D02*
D03*
X234449D02*
D03*
X232480D02*
D03*
X230512D02*
D03*
X228543D02*
D03*
X226575D02*
D03*
X224606D02*
D03*
X222638D02*
D03*
X220669D02*
D03*
X218701D02*
D03*
X216732D02*
D03*
X214764D02*
D03*
X212795D02*
D03*
X210827D02*
D03*
X208858D02*
D03*
X206890D02*
D03*
X204921D02*
D03*
X202953D02*
D03*
X200984D02*
D03*
X199016D02*
D03*
X197047D02*
D03*
X195079D02*
D03*
X193110D02*
D03*
X191142D02*
D03*
X189173D02*
D03*
X187205D02*
D03*
X185236D02*
D03*
X183268D02*
D03*
X181299D02*
D03*
X179331D02*
D03*
X177362D02*
D03*
X175394D02*
D03*
X173425D02*
D03*
X171457D02*
D03*
X169488D02*
D03*
X167520D02*
D03*
X165551D02*
D03*
X163583D02*
D03*
X374213Y294882D02*
D03*
X372244D02*
D03*
X370276D02*
D03*
X368307D02*
D03*
X366339D02*
D03*
X364370D02*
D03*
X362402D02*
D03*
X360433D02*
D03*
X358465D02*
D03*
X356496D02*
D03*
X354528D02*
D03*
X352559D02*
D03*
X350590D02*
D03*
X348622D02*
D03*
X346654D02*
D03*
X344685D02*
D03*
X342717D02*
D03*
X340748D02*
D03*
X338779D02*
D03*
X336811D02*
D03*
X334842D02*
D03*
X332874D02*
D03*
X330906D02*
D03*
X328937D02*
D03*
X326969D02*
D03*
X325000D02*
D03*
X323031D02*
D03*
X321063D02*
D03*
X319094D02*
D03*
X317126D02*
D03*
X315158D02*
D03*
X313189D02*
D03*
X311221D02*
D03*
X309252D02*
D03*
X307283D02*
D03*
X305315D02*
D03*
X303346D02*
D03*
X301378D02*
D03*
X299410D02*
D03*
X297441D02*
D03*
X295472D02*
D03*
X293504D02*
D03*
X291535D02*
D03*
X289567D02*
D03*
X287598D02*
D03*
X285630D02*
D03*
X283661D02*
D03*
X281693D02*
D03*
X279724D02*
D03*
X277756D02*
D03*
X275787D02*
D03*
X273819D02*
D03*
X271850D02*
D03*
X269882D02*
D03*
X267913D02*
D03*
X265945D02*
D03*
X263976D02*
D03*
X262008D02*
D03*
X260039D02*
D03*
X258071D02*
D03*
X256102D02*
D03*
X254134D02*
D03*
X252165D02*
D03*
X250197D02*
D03*
X248228D02*
D03*
X246260D02*
D03*
X244291D02*
D03*
X242323D02*
D03*
X240354D02*
D03*
X238386D02*
D03*
X236417D02*
D03*
X234449D02*
D03*
X232480D02*
D03*
X230512D02*
D03*
X228543D02*
D03*
X226575D02*
D03*
X224606D02*
D03*
X222638D02*
D03*
X220669D02*
D03*
X218701D02*
D03*
X216732D02*
D03*
X214764D02*
D03*
X212795D02*
D03*
X210827D02*
D03*
X208858D02*
D03*
X206890D02*
D03*
X204921D02*
D03*
X202953D02*
D03*
X200984D02*
D03*
X199016D02*
D03*
X197047D02*
D03*
X195079D02*
D03*
X193110D02*
D03*
X191142D02*
D03*
X189173D02*
D03*
X187205D02*
D03*
X185236D02*
D03*
X183268D02*
D03*
X181299D02*
D03*
X179331D02*
D03*
X177362D02*
D03*
X175394D02*
D03*
X173425D02*
D03*
X171457D02*
D03*
X169488D02*
D03*
X167520D02*
D03*
X165551D02*
D03*
X163583D02*
D03*
D117*
X148228Y305512D02*
D03*
X389567D02*
D03*
D118*
X222244Y348543D02*
D03*
Y377047D02*
D03*
X243307Y439646D02*
D03*
Y411142D02*
D03*
D119*
X130315Y417520D02*
D03*
Y449016D02*
D03*
D120*
X113773Y395866D02*
D03*
X139173D02*
D03*
X179235D02*
D03*
X153835D02*
D03*
X41529Y339173D02*
D03*
X66929D02*
D03*
D121*
X125197Y375197D02*
D03*
Y367323D02*
D03*
X162205Y475787D02*
D03*
Y467913D02*
D03*
D122*
X171752Y371063D02*
D03*
X194193Y443307D02*
D03*
D123*
X179527Y364764D02*
D03*
Y367913D02*
D03*
Y371063D02*
D03*
Y374213D02*
D03*
Y377362D02*
D03*
X163976Y364764D02*
D03*
Y367913D02*
D03*
Y371063D02*
D03*
Y374213D02*
D03*
Y377362D02*
D03*
X186417Y449606D02*
D03*
Y446457D02*
D03*
Y443307D02*
D03*
Y440157D02*
D03*
Y437008D02*
D03*
X201969Y449606D02*
D03*
Y446457D02*
D03*
Y443307D02*
D03*
Y440157D02*
D03*
Y437008D02*
D03*
D124*
X197835Y342421D02*
D03*
Y354035D02*
D03*
X107087Y332579D02*
D03*
Y320965D02*
D03*
X219685Y430905D02*
D03*
Y419291D02*
D03*
X43504Y304823D02*
D03*
Y293209D02*
D03*
D125*
X197716Y362598D02*
D03*
X189961D02*
D03*
X148504Y465158D02*
D03*
X140748D02*
D03*
X211614Y439370D02*
D03*
X219370D02*
D03*
D126*
X193839Y377362D02*
D03*
X144626Y479921D02*
D03*
X215492Y454134D02*
D03*
D127*
X309626Y389961D02*
D03*
X304626D02*
D03*
X299626D02*
D03*
X294626D02*
D03*
X289626D02*
D03*
X284626D02*
D03*
X279626D02*
D03*
X274626D02*
D03*
X309626Y351378D02*
D03*
X304626D02*
D03*
X299626D02*
D03*
X294626D02*
D03*
X289626D02*
D03*
X284626D02*
D03*
X279626D02*
D03*
D128*
X274626D02*
D03*
D129*
X706693Y6496D02*
D03*
X702362D02*
D03*
X698032D02*
D03*
X693701D02*
D03*
X689370D02*
D03*
X685039D02*
D03*
X680709D02*
D03*
D130*
X676476D02*
D03*
D131*
X716378Y6988D02*
D03*
D132*
X671634Y7874D02*
D03*
D133*
X679783Y49114D02*
D03*
X703287D02*
D03*
D134*
X717067Y30709D02*
D03*
Y45276D02*
D03*
D135*
X558661Y63681D02*
D03*
Y56398D02*
D03*
X652165Y44980D02*
D03*
Y52264D02*
D03*
X755512Y66535D02*
D03*
Y59252D02*
D03*
X312795Y70276D02*
D03*
Y62992D02*
D03*
X228346Y70472D02*
D03*
Y63189D02*
D03*
D136*
X700197Y64764D02*
D03*
X698228D02*
D03*
X694291D02*
D03*
X692323D02*
D03*
X700197Y61472D02*
D03*
X698228D02*
D03*
X694291D02*
D03*
X692323D02*
D03*
X687008Y64780D02*
D03*
X685039D02*
D03*
X681102D02*
D03*
X679134D02*
D03*
X687008Y61488D02*
D03*
X685039D02*
D03*
X681102D02*
D03*
X679134D02*
D03*
X611417Y96724D02*
D03*
X609449D02*
D03*
X605512D02*
D03*
X603543D02*
D03*
X611417Y93433D02*
D03*
X609449D02*
D03*
X605512D02*
D03*
X603543D02*
D03*
X173031Y82819D02*
D03*
X171063D02*
D03*
X167126D02*
D03*
X165157D02*
D03*
X173031Y79528D02*
D03*
X171063D02*
D03*
X167126D02*
D03*
X165157D02*
D03*
X505315Y95472D02*
D03*
X503346D02*
D03*
X499409D02*
D03*
X497441D02*
D03*
X505315Y92181D02*
D03*
X503346D02*
D03*
X499409D02*
D03*
X497441D02*
D03*
X446457Y50142D02*
D03*
X444488D02*
D03*
X440551D02*
D03*
X438583D02*
D03*
X446457Y46850D02*
D03*
X444488D02*
D03*
X440551D02*
D03*
X438583D02*
D03*
X433071Y50071D02*
D03*
X431102D02*
D03*
X427165D02*
D03*
X425197D02*
D03*
X433071Y46780D02*
D03*
X431102D02*
D03*
X427165D02*
D03*
X425197D02*
D03*
X411417D02*
D03*
X413386D02*
D03*
X417323D02*
D03*
X419291D02*
D03*
X411417Y50071D02*
D03*
X413386D02*
D03*
X417323D02*
D03*
X419291D02*
D03*
X157283Y82693D02*
D03*
X155315D02*
D03*
X151378D02*
D03*
X149409D02*
D03*
X157283Y79402D02*
D03*
X155315D02*
D03*
X151378D02*
D03*
X149409D02*
D03*
X535433Y95543D02*
D03*
X533465D02*
D03*
X529528D02*
D03*
X527559D02*
D03*
X535433Y92252D02*
D03*
X533465D02*
D03*
X529528D02*
D03*
X527559D02*
D03*
D137*
X696260Y64764D02*
D03*
Y61472D02*
D03*
X683071Y64780D02*
D03*
Y61488D02*
D03*
X607480Y96724D02*
D03*
Y93433D02*
D03*
X169095Y82819D02*
D03*
Y79528D02*
D03*
X501378Y95472D02*
D03*
Y92181D02*
D03*
X442520Y50142D02*
D03*
Y46850D02*
D03*
X429134Y50071D02*
D03*
Y46780D02*
D03*
X415354D02*
D03*
Y50071D02*
D03*
X153347Y82693D02*
D03*
Y79402D02*
D03*
X531496Y95543D02*
D03*
Y92252D02*
D03*
D138*
X589961Y145866D02*
D03*
X593110D02*
D03*
X596260D02*
D03*
X599409D02*
D03*
X589961Y152165D02*
D03*
X593110D02*
D03*
X596260D02*
D03*
X599409D02*
D03*
X611024Y145866D02*
D03*
X614173D02*
D03*
X617323D02*
D03*
X620472D02*
D03*
X611024Y152165D02*
D03*
X614173D02*
D03*
X617323D02*
D03*
X620472D02*
D03*
D139*
X638189Y122244D02*
D03*
Y129331D02*
D03*
X647244D02*
D03*
Y122244D02*
D03*
D140*
X611221Y115551D02*
D03*
X609252D02*
D03*
X607283D02*
D03*
X605315D02*
D03*
X603346D02*
D03*
X601378D02*
D03*
X599409D02*
D03*
X597441D02*
D03*
Y134252D02*
D03*
X599409D02*
D03*
X601378D02*
D03*
X603346D02*
D03*
X605315D02*
D03*
X607283D02*
D03*
X609252D02*
D03*
X611221D02*
D03*
D141*
X594980Y118012D02*
D03*
Y119980D02*
D03*
Y121949D02*
D03*
Y123917D02*
D03*
Y125886D02*
D03*
Y127854D02*
D03*
Y129823D02*
D03*
Y131791D02*
D03*
X613681D02*
D03*
Y129823D02*
D03*
Y127854D02*
D03*
Y125886D02*
D03*
Y123917D02*
D03*
Y121949D02*
D03*
Y119980D02*
D03*
Y118012D02*
D03*
D142*
X604331Y124902D02*
D03*
D143*
X634154Y108465D02*
D03*
X622539D02*
D03*
X743898Y76378D02*
D03*
X755512D02*
D03*
X289862Y53937D02*
D03*
X301476D02*
D03*
X206594Y56890D02*
D03*
X218209D02*
D03*
D144*
X770472Y84842D02*
D03*
Y76968D02*
D03*
X774409D02*
D03*
Y84842D02*
D03*
X191339Y107480D02*
D03*
Y99606D02*
D03*
X195276D02*
D03*
Y107480D02*
D03*
X180709Y106693D02*
D03*
Y98819D02*
D03*
X184646D02*
D03*
Y106693D02*
D03*
X169961Y105905D02*
D03*
Y98032D02*
D03*
X173898D02*
D03*
Y105905D02*
D03*
X159764D02*
D03*
Y98032D02*
D03*
X163701D02*
D03*
Y105905D02*
D03*
X149567D02*
D03*
Y98032D02*
D03*
X153504D02*
D03*
Y105905D02*
D03*
X139370Y106102D02*
D03*
Y98228D02*
D03*
X143307D02*
D03*
Y106102D02*
D03*
X353740Y91929D02*
D03*
Y84055D02*
D03*
X357677D02*
D03*
Y91929D02*
D03*
X338583D02*
D03*
Y84055D02*
D03*
X342520D02*
D03*
Y91929D02*
D03*
X254724Y93701D02*
D03*
Y85827D02*
D03*
X258661D02*
D03*
Y93701D02*
D03*
X269488D02*
D03*
Y85827D02*
D03*
X273425D02*
D03*
Y93701D02*
D03*
D145*
X794685Y69685D02*
D03*
X797244D02*
D03*
X799803D02*
D03*
X802362D02*
D03*
X794685Y87008D02*
D03*
X797244D02*
D03*
X799803D02*
D03*
X802362D02*
D03*
X297835Y98425D02*
D03*
X295276D02*
D03*
X292717D02*
D03*
X290158D02*
D03*
X297835Y81102D02*
D03*
X295276D02*
D03*
X292717D02*
D03*
X290158D02*
D03*
X213189Y101378D02*
D03*
X210630D02*
D03*
X208071D02*
D03*
X205512D02*
D03*
X213189Y84055D02*
D03*
X210630D02*
D03*
X208071D02*
D03*
X205512D02*
D03*
X111909Y75197D02*
D03*
X114469D02*
D03*
X117028D02*
D03*
X119587D02*
D03*
X111909Y92520D02*
D03*
X114469D02*
D03*
X117028D02*
D03*
X119587D02*
D03*
D146*
X798524Y78347D02*
D03*
X293996Y89764D02*
D03*
X209350Y92716D02*
D03*
X115748Y83858D02*
D03*
D147*
X383268Y81890D02*
D03*
X371654D02*
D03*
D148*
X432087Y76575D02*
D03*
D149*
X425197Y86614D02*
D03*
X427165D02*
D03*
X429134D02*
D03*
X431102D02*
D03*
X433071D02*
D03*
X435039D02*
D03*
X437008D02*
D03*
X438976D02*
D03*
Y66535D02*
D03*
X437008D02*
D03*
X435039D02*
D03*
X433071D02*
D03*
X431102D02*
D03*
X429134D02*
D03*
X427165D02*
D03*
X425197D02*
D03*
D150*
X442126Y83464D02*
D03*
Y81496D02*
D03*
Y79527D02*
D03*
Y77559D02*
D03*
Y75590D02*
D03*
Y73622D02*
D03*
Y71653D02*
D03*
Y69685D02*
D03*
X422047D02*
D03*
Y71653D02*
D03*
Y73622D02*
D03*
Y75590D02*
D03*
Y77559D02*
D03*
Y79527D02*
D03*
Y81496D02*
D03*
Y83464D02*
D03*
D151*
X446850Y33268D02*
D03*
X444882D02*
D03*
X442913D02*
D03*
X440945D02*
D03*
X438976D02*
D03*
X437008D02*
D03*
X435039D02*
D03*
X433071D02*
D03*
X431102D02*
D03*
X429134D02*
D03*
X427165D02*
D03*
X425197D02*
D03*
X423228D02*
D03*
X421260D02*
D03*
X419291D02*
D03*
X417323D02*
D03*
X415354D02*
D03*
X413386D02*
D03*
X411417D02*
D03*
D152*
X296063Y38780D02*
D03*
X303346D02*
D03*
X210630Y41535D02*
D03*
X217913D02*
D03*
X130118Y60630D02*
D03*
X122835D02*
D03*
X123327Y33661D02*
D03*
X130610D02*
D03*
D153*
X45669Y191831D02*
D03*
X97835Y221555D02*
D03*
X96850Y191831D02*
D03*
X95866Y221555D02*
D03*
X94882Y191831D02*
D03*
X93898Y221555D02*
D03*
X92913Y191831D02*
D03*
X91929Y221555D02*
D03*
X90945Y191831D02*
D03*
X89961Y221555D02*
D03*
X88976Y191831D02*
D03*
X87992Y221555D02*
D03*
X87008Y191831D02*
D03*
X86024Y221555D02*
D03*
X85039Y191831D02*
D03*
X84055Y221555D02*
D03*
X83071Y191831D02*
D03*
X82087Y221555D02*
D03*
X81102Y191831D02*
D03*
X80118Y221555D02*
D03*
X79134Y191831D02*
D03*
X78150Y221555D02*
D03*
X77165Y191831D02*
D03*
X76181Y221555D02*
D03*
X75197Y191831D02*
D03*
X74213Y221555D02*
D03*
X73228Y191831D02*
D03*
X72244Y221555D02*
D03*
X71260Y191831D02*
D03*
X70276Y221555D02*
D03*
X69291Y191831D02*
D03*
X68307Y221555D02*
D03*
X67323Y191831D02*
D03*
X66339Y221555D02*
D03*
X65354Y191831D02*
D03*
X64370Y221555D02*
D03*
X63386Y191831D02*
D03*
X62402Y221555D02*
D03*
X61417Y191831D02*
D03*
X60433Y221555D02*
D03*
X59449Y191831D02*
D03*
X58465Y221555D02*
D03*
X57480Y191831D02*
D03*
X56496Y221555D02*
D03*
X46654D02*
D03*
X44685D02*
D03*
X43701Y191831D02*
D03*
X42717Y221555D02*
D03*
X41732Y191831D02*
D03*
X40748Y221555D02*
D03*
X39764Y191831D02*
D03*
X38780Y221555D02*
D03*
X37795Y191831D02*
D03*
X36811Y221555D02*
D03*
X35827Y191831D02*
D03*
X34843Y221555D02*
D03*
X33858Y191831D02*
D03*
X32874Y221555D02*
D03*
X31890Y191831D02*
D03*
X30906Y221555D02*
D03*
X29921Y191831D02*
D03*
X28937Y221555D02*
D03*
X27953Y191831D02*
D03*
X26969Y221555D02*
D03*
X25984Y191831D02*
D03*
X25000Y221555D02*
D03*
X55512Y191831D02*
D03*
D154*
X102165Y218504D02*
D03*
X20669D02*
D03*
D155*
X62008Y288484D02*
D03*
Y303051D02*
D03*
D156*
X221654Y483799D02*
D03*
Y476043D02*
D03*
D157*
X206890Y479921D02*
D03*
D158*
X92126Y37402D02*
D03*
Y5906D02*
D03*
X74409Y37402D02*
D03*
Y5906D02*
D03*
D159*
X746575Y33268D02*
D03*
X798307D02*
D03*
X238386Y481260D02*
D03*
X588386D02*
D03*
X142441Y59016D02*
D03*
X194173D02*
D03*
X142441Y36614D02*
D03*
X194173D02*
D03*
D160*
X458465Y285197D02*
D03*
X418780Y343898D02*
D03*
X428780D02*
D03*
X408779D02*
D03*
X398780D02*
D03*
X388779D02*
D03*
X571102Y279528D02*
D03*
X561181Y291339D02*
D03*
X801772Y282283D02*
D03*
Y292284D02*
D03*
Y302284D02*
D03*
Y322284D02*
D03*
Y312283D02*
D03*
X801575Y111221D02*
D03*
Y121221D02*
D03*
Y131220D02*
D03*
Y151221D02*
D03*
Y141220D02*
D03*
X121024Y7874D02*
D03*
D161*
X458465Y295197D02*
D03*
X801772Y332283D02*
D03*
X801575Y161221D02*
D03*
D162*
X438779Y343898D02*
D03*
X561102Y279528D02*
D03*
X571181Y291339D02*
D03*
X111024Y7874D02*
D03*
D163*
X536614Y70472D02*
D03*
X528622D02*
D03*
X520630D02*
D03*
X512598D02*
D03*
X504606D02*
D03*
X496614D02*
D03*
X540630Y80472D02*
D03*
X532638D02*
D03*
X524646D02*
D03*
X508583D02*
D03*
X500591D02*
D03*
X492598D02*
D03*
D164*
X546220Y19488D02*
D03*
Y9488D02*
D03*
X487008Y29488D02*
D03*
Y19488D02*
D03*
Y9488D02*
D03*
D165*
X551221Y44488D02*
D03*
X482008D02*
D03*
X46024Y361850D02*
D03*
X61024D02*
D03*
X76024D02*
D03*
D166*
X535630Y44488D02*
D03*
X497598D02*
D03*
D167*
X258386Y471260D02*
D03*
X268386D02*
D03*
X278386D02*
D03*
X288386D02*
D03*
X298386D02*
D03*
X308386D02*
D03*
X318386D02*
D03*
X328386D02*
D03*
X338386D02*
D03*
X348386D02*
D03*
X358386D02*
D03*
X368386D02*
D03*
X378386D02*
D03*
X388386D02*
D03*
X398386D02*
D03*
X408386D02*
D03*
X418386D02*
D03*
X428386D02*
D03*
X438386D02*
D03*
X448386D02*
D03*
X458386D02*
D03*
X468386D02*
D03*
X478386D02*
D03*
X488386D02*
D03*
X498386D02*
D03*
X508386D02*
D03*
X518386D02*
D03*
X528386D02*
D03*
X538386D02*
D03*
X548386D02*
D03*
X558386D02*
D03*
X568386D02*
D03*
X258386Y461260D02*
D03*
X268386D02*
D03*
X278386D02*
D03*
X288386D02*
D03*
X298386D02*
D03*
X308386D02*
D03*
X318386D02*
D03*
X328386D02*
D03*
X338386D02*
D03*
X348386D02*
D03*
X358386D02*
D03*
X368386D02*
D03*
X378386D02*
D03*
X388386D02*
D03*
X398386D02*
D03*
X408386D02*
D03*
X418386D02*
D03*
X428386D02*
D03*
X438386D02*
D03*
X448386D02*
D03*
X458386D02*
D03*
X468386D02*
D03*
X478386D02*
D03*
X488386D02*
D03*
X498386D02*
D03*
X508386D02*
D03*
X518386D02*
D03*
X528386D02*
D03*
X538386D02*
D03*
X548386D02*
D03*
X558386D02*
D03*
X568386D02*
D03*
X258386Y451260D02*
D03*
X268386D02*
D03*
X278386D02*
D03*
X288386D02*
D03*
X298386D02*
D03*
X308386D02*
D03*
X318386D02*
D03*
X328386D02*
D03*
X338386D02*
D03*
X348386D02*
D03*
X358386D02*
D03*
X368386D02*
D03*
X378386D02*
D03*
X388386D02*
D03*
X398386D02*
D03*
X408386D02*
D03*
X418386D02*
D03*
X428386D02*
D03*
X438386D02*
D03*
X448386D02*
D03*
X458386D02*
D03*
X468386D02*
D03*
X478386D02*
D03*
X488386D02*
D03*
X498386D02*
D03*
X508386D02*
D03*
X518386D02*
D03*
X528386D02*
D03*
X538386D02*
D03*
X548386D02*
D03*
X558386D02*
D03*
X568386D02*
D03*
X456693Y29331D02*
D03*
X399606D02*
D03*
X397244Y10039D02*
D03*
X459055D02*
D03*
D168*
X382480Y305512D02*
D03*
X100787Y200787D02*
D03*
X22047D02*
D03*
X98268Y288819D02*
D03*
D169*
X155315Y305512D02*
D03*
D170*
X431693Y313386D02*
D03*
X132480D02*
D03*
X132480Y128347D02*
D03*
X431693D02*
D03*
X61417Y75787D02*
D03*
D171*
X184055Y62992D02*
D03*
X176181D02*
D03*
X168307D02*
D03*
X160433D02*
D03*
X152559D02*
D03*
X172244Y57087D02*
D03*
X164370D02*
D03*
X184055Y50394D02*
D03*
X176181D02*
D03*
X168307D02*
D03*
X160433D02*
D03*
X152559D02*
D03*
X172244Y44488D02*
D03*
X164370D02*
D03*
D172*
X182087Y57087D02*
D03*
X154527D02*
D03*
X182087Y44488D02*
D03*
X154527D02*
D03*
D173*
X353661Y51811D02*
D03*
X326102D02*
D03*
X353661Y41575D02*
D03*
X326102D02*
D03*
X267583Y51575D02*
D03*
X240024D02*
D03*
X267583Y41339D02*
D03*
X240024D02*
D03*
D174*
X343819Y51811D02*
D03*
X335945D02*
D03*
X343819Y41575D02*
D03*
X335945D02*
D03*
X257740Y51575D02*
D03*
X249867D02*
D03*
X257740Y41339D02*
D03*
X249867D02*
D03*
D175*
X365866Y53268D02*
D03*
X365748Y30906D02*
D03*
X314134Y53268D02*
D03*
X314016Y30906D02*
D03*
X279788Y53031D02*
D03*
X279670Y30669D02*
D03*
X228056Y53031D02*
D03*
X227937Y30669D02*
D03*
D176*
X89764Y278819D02*
D03*
Y288819D02*
D03*
Y298819D02*
D03*
Y308819D02*
D03*
D177*
X91024Y471850D02*
D03*
X61024D02*
D03*
X31024D02*
D03*
D178*
Y361850D02*
D03*
X91024D02*
D03*
D179*
X582579Y13780D02*
D03*
X592579Y19764D02*
D03*
X622382Y13780D02*
D03*
X632382Y19764D02*
D03*
X589980Y58071D02*
D03*
X594980Y68071D02*
D03*
X599980Y58071D02*
D03*
X604980Y68071D02*
D03*
X609980Y58071D02*
D03*
X614980Y68071D02*
D03*
X619980Y58071D02*
D03*
X624980Y68071D02*
D03*
X629980Y33071D02*
D03*
X584980D02*
D03*
D180*
X638091Y45079D02*
D03*
X576870D02*
D03*
D181*
X41929Y28937D02*
D03*
D182*
Y53543D02*
D03*
D183*
X60827Y41732D02*
D03*
D184*
X716535Y410236D02*
D03*
X530905Y441929D02*
D03*
X515354Y421457D02*
D03*
X604921Y439370D02*
D03*
X780905Y462598D02*
D03*
X732874Y413583D02*
D03*
X736811Y409646D02*
D03*
X726181Y213976D02*
D03*
X613040Y415020D02*
D03*
X636417Y467913D02*
D03*
X626378Y470866D02*
D03*
X609842Y472047D02*
D03*
X637530Y420020D02*
D03*
X605315Y466929D02*
D03*
X612598Y420079D02*
D03*
X604921Y459055D02*
D03*
Y447244D02*
D03*
X795472Y346063D02*
D03*
X551378Y296063D02*
D03*
X537402D02*
D03*
X561024Y247047D02*
D03*
X560827Y260433D02*
D03*
X555118Y127953D02*
D03*
X555512Y142520D02*
D03*
X717520Y459252D02*
D03*
X669882Y461221D02*
D03*
X575787Y399606D02*
D03*
X716732Y415748D02*
D03*
X805118Y409842D02*
D03*
X688976Y400000D02*
D03*
X699606Y400197D02*
D03*
X772047Y395472D02*
D03*
X805906Y382283D02*
D03*
X794095Y392126D02*
D03*
X787402Y464567D02*
D03*
X787008Y482480D02*
D03*
X771654Y476772D02*
D03*
X771063Y458858D02*
D03*
X782480Y480315D02*
D03*
X621063Y441142D02*
D03*
X620669Y395669D02*
D03*
X720276Y430709D02*
D03*
X725000D02*
D03*
Y448819D02*
D03*
X798228Y410433D02*
D03*
X717520Y453740D02*
D03*
X759842Y483268D02*
D03*
X636221Y481102D02*
D03*
X626378Y424606D02*
D03*
X637008Y435039D02*
D03*
X760039Y464961D02*
D03*
X767520Y375787D02*
D03*
X731693Y399016D02*
D03*
X744685Y426378D02*
D03*
X761614Y430905D02*
D03*
X780118Y434449D02*
D03*
X637598Y427362D02*
D03*
X660236Y464764D02*
D03*
X609596Y430561D02*
D03*
X613189Y404921D02*
D03*
X454528Y433268D02*
D03*
X464173Y433858D02*
D03*
X474803Y433858D02*
D03*
X443110Y433661D02*
D03*
X596457Y386811D02*
D03*
X772424Y409252D02*
D03*
X637795Y473819D02*
D03*
X392323Y390748D02*
D03*
X377756D02*
D03*
X171850Y366732D02*
D03*
X175197D02*
D03*
X168307D02*
D03*
X171850Y371063D02*
D03*
X175197Y371063D02*
D03*
X168307Y371063D02*
D03*
Y375394D02*
D03*
X175197D02*
D03*
X171850D02*
D03*
X801083Y76378D02*
D03*
X291437Y91732D02*
D03*
X206791Y94685D02*
D03*
X113189Y85827D02*
D03*
X194291Y447638D02*
D03*
X197638D02*
D03*
X190748D02*
D03*
Y443307D02*
D03*
X197638Y443307D02*
D03*
X194291Y443307D02*
D03*
X190748Y438976D02*
D03*
X197638D02*
D03*
X194291D02*
D03*
M02*
